<?xml version="1.0" standalone="no"?><!DOCTYPE svg PUBLIC "-//W3C//DTD SVG 1.1//EN" "http://www.w3.org/Graphics/SVG/1.1/DTD/svg11.dtd"><svg t="1683813154725" class="icon" viewBox="0 0 1024 1024" version="1.1" xmlns="http://www.w3.org/2000/svg" p-id="6575" width="64" height="64" xmlns:xlink="http://www.w3.org/1999/xlink"><path d="M500.2 0.18C290.02 6.48 128 189.84 128 400.1v527.84c0 28.52 34.46 42.78 54.62 22.62l49.84-37.06c13.32-9.9 32-7.98 43.02 4.42l85.9 96.7c12.5 12.5 32.76 12.5 45.26 0l81.44-91.7c12.74-14.34 35.12-14.34 47.84 0l81.44 91.7c12.5 12.5 32.76 12.5 45.26 0l85.9-96.7c11.02-12.4 29.7-14.34 43.02-4.42l49.84 37.06c20.16 20.16 54.62 5.88 54.62-22.62V384C896 168 717.66-6.34 500.2 0.18zM384 448c-35.34 0-64-28.66-64-64s28.66-64 64-64 64 28.66 64 64-28.66 64-64 64z m256 0c-35.34 0-64-28.66-64-64s28.66-64 64-64 64 28.66 64 64-28.66 64-64 64z" p-id="6576" fill="#f1f1f1"></path></svg>