<?xml version="1.0" standalone="no"?><!DOCTYPE svg PUBLIC "-//W3C//DTD SVG 1.1//EN" "http://www.w3.org/Graphics/SVG/1.1/DTD/svg11.dtd"><svg t="1683813266662" class="icon" viewBox="0 0 1024 1024" version="1.1" xmlns="http://www.w3.org/2000/svg" p-id="7677" width="32" height="32" xmlns:xlink="http://www.w3.org/1999/xlink"><path d="M1018.176 291.904L732.128 5.856c-9.344-9.344-21.632-7.232-27.36 4.672l-38.368 79.904 267.2 267.2 79.904-38.368c11.904-5.696 14.016-18.016 4.672-27.36zM615.392 135.392L352 157.344c-17.504 2.176-32.064 5.888-37.088 28.768l-0.032 0.064C243.456 529.248 0 864.032 0 864.032l57.376 57.376 272-272a96 96 0 1 1 45.248 45.248l-272 272L160 1024.032s334.784-243.456 677.856-314.88l0.064-0.032c22.848-5.024 26.592-19.584 28.736-37.088l21.952-263.392-273.216-273.248z" p-id="7678" fill="#f1f1f1"></path></svg>