<?xml version="1.0" standalone="no"?>
<!DOCTYPE svg PUBLIC "-//W3C//DTD SVG 20010904//EN"
 "http://www.w3.org/TR/2001/REC-SVG-20010904/DTD/svg10.dtd">
<svg version="1.0" xmlns="http://www.w3.org/2000/svg"
 width="615.000000pt" height="615.000000pt" viewBox="0 0 615.000000 615.000000"
 preserveAspectRatio="xMidYMid meet">
<metadata>
Created by potrace 1.14, written by Peter Selinger 2001-2017
</metadata>
<g transform="translate(0.000000,615.000000) scale(0.100000,-0.100000)"
fill="#000000" stroke="none">
<path d="M0 4936 c1 -1055 3 -1214 16 -1209 17 6 19 -8 3 -24 -8 -8 -8 -13 0
-17 6 -4 11 -16 11 -27 0 -11 10 -24 23 -30 18 -8 23 -17 20 -37 -4 -21 -2
-24 6 -12 9 13 11 12 12 -5 1 -11 1 -29 0 -39 -1 -11 4 -23 11 -28 11 -6 11
-8 0 -8 -7 0 -17 10 -22 23 -6 15 -9 17 -9 5 -1 -9 -7 -18 -13 -20 -10 -4 -10
-11 1 -34 12 -27 14 -28 22 -9 5 14 8 7 7 -26 l-1 -46 -40 9 c-22 5 -42 6 -45
3 -3 -3 0 -5 7 -5 7 0 10 -4 7 -9 -3 -5 5 -12 19 -15 14 -4 25 -13 25 -21 0
-11 -8 -13 -33 -8 -29 6 -31 5 -18 -10 9 -11 10 -17 2 -17 -6 0 -11 -7 -11
-15 0 -8 7 -15 15 -15 19 0 19 -27 0 -46 -17 -18 -22 -174 -5 -174 6 0 10 7
10 15 0 8 5 15 11 15 5 0 8 4 4 9 -3 5 -1 12 5 16 5 3 10 15 10 26 0 10 5 19
10 19 14 0 13 -23 -2 -38 -6 -6 -8 -15 -4 -19 13 -14 26 22 21 55 -4 23 -3 32
4 27 7 -3 11 2 11 14 0 30 17 34 24 5 5 -20 10 -23 20 -15 7 6 16 8 19 4 4 -3
7 -1 7 5 0 26 31 10 47 -24 13 -26 14 -39 7 -52 -11 -17 3 -72 18 -72 4 0 8
-7 8 -16 0 -8 4 -12 10 -9 6 3 7 -1 4 -9 -3 -9 -2 -16 4 -16 6 0 7 -13 2 -35
-4 -19 -4 -33 0 -30 5 3 11 1 15 -5 3 -5 -1 -10 -9 -10 -9 0 -16 -5 -16 -11 0
-5 5 -7 11 -4 6 4 13 -2 16 -14 3 -12 11 -21 19 -21 8 0 11 -9 8 -25 -3 -18 0
-25 12 -25 13 0 14 -3 4 -15 -7 -9 -10 -25 -5 -42 5 -23 4 -25 -9 -14 -13 11
-16 11 -16 -2 0 -9 5 -19 10 -22 7 -4 7 -12 0 -25 -8 -15 -6 -21 7 -29 16 -9
16 -10 -4 -11 -13 0 -23 -4 -23 -10 0 -5 9 -10 20 -10 11 0 20 -4 20 -10 0 -5
-9 -10 -20 -10 -13 0 -20 -7 -20 -20 0 -11 5 -19 11 -17 7 1 15 -10 19 -25 6
-20 5 -25 -6 -21 -7 3 -12 10 -11 16 1 7 -6 11 -15 9 -14 -2 -18 4 -18 29 l0
32 -21 -27 c-14 -18 -19 -34 -15 -51 3 -13 2 -27 -4 -30 -5 -3 -10 1 -10 9 0
9 -5 16 -11 16 -13 0 -2 39 19 63 14 15 14 17 -1 17 -9 0 -19 -5 -22 -10 -5
-8 -11 -7 -21 1 -10 8 -14 8 -14 0 0 -6 -9 -11 -20 -11 -13 0 -20 -7 -20 -20
0 -13 7 -20 20 -20 11 0 20 5 20 11 0 5 5 7 10 4 6 -4 5 -12 -4 -21 -17 -16
-46 -19 -46 -4 0 6 -9 10 -20 10 -13 0 -20 7 -20 20 0 13 7 20 20 20 11 0 20
5 20 10 0 6 -4 10 -10 10 -5 0 -10 5 -10 11 0 8 6 7 17 -2 13 -11 17 -12 21
-1 2 7 16 18 31 24 l26 11 -34 7 c-19 5 -38 15 -43 24 -5 8 -14 13 -21 11 -6
-3 -22 13 -34 35 -12 22 -18 40 -13 40 4 0 6 9 3 20 -6 24 -13 25 -39 5 -16
-13 -17 -16 -4 -25 10 -7 11 -10 2 -10 -10 0 -12 -43 -12 -196 1 -145 4 -194
13 -191 7 2 16 13 22 25 12 27 17 27 40 2 21 -23 13 -39 -9 -20 -13 10 -19 9
-31 -4 -9 -9 -21 -16 -26 -16 -5 0 -9 -464 -9 -1190 l0 -1190 25 0 c21 0 25 5
25 30 0 17 5 30 11 30 5 0 7 5 4 11 -8 12 22 79 35 79 6 0 10 7 10 15 0 8 9
20 20 27 11 7 20 18 20 24 0 7 7 14 15 18 8 3 15 12 15 21 0 8 6 15 13 15 7 0
18 9 25 20 7 12 17 18 22 15 6 -3 10 0 10 8 0 14 49 42 58 32 3 -2 6 -81 6
-175 l1 -170 393 0 392 0 0 24 c0 14 5 28 11 31 6 4 8 14 5 22 -3 8 -3 20 1
26 16 26 22 147 9 185 -6 17 -4 22 9 22 12 0 14 4 7 17 -6 10 -6 29 0 51 5 19
11 66 11 103 1 38 5 69 8 69 3 0 5 46 4 103 -1 56 2 107 6 112 5 6 3 31 -2 55
-11 45 -12 83 -5 130 2 14 4 31 5 38 1 14 21 17 21 2 0 -12 97 -110 108 -110
5 0 15 -11 22 -25 7 -14 15 -23 17 -21 3 2 27 -18 54 -45 27 -27 56 -49 64
-49 8 0 15 -5 15 -11 0 -16 48 -59 66 -59 7 0 14 -4 14 -10 0 -5 7 -10 15 -10
8 0 15 -4 15 -10 0 -5 6 -10 14 -10 8 0 16 -7 20 -15 3 -8 12 -15 21 -15 8 0
15 -5 15 -11 0 -6 7 -9 15 -5 8 3 15 0 15 -7 0 -7 25 -23 55 -37 30 -14 55
-28 55 -32 0 -5 9 -8 20 -8 11 0 20 -4 20 -8 0 -8 25 -22 73 -41 27 -10 115
-50 139 -62 10 -5 24 -6 33 -3 8 3 15 1 15 -5 0 -6 10 -11 23 -11 13 0 27 -4
33 -8 5 -5 38 -17 74 -27 36 -10 70 -23 77 -28 7 -5 21 -6 33 -2 14 4 20 2 20
-9 0 -11 8 -13 35 -9 29 5 34 3 29 -10 -7 -19 -54 -31 -92 -22 -15 3 -58 -1
-96 -9 -39 -8 -80 -11 -95 -7 -54 16 -172 1 -360 -43 -181 -43 -242 -64 -255
-85 -4 -5 -24 -12 -46 -16 -22 -4 -50 -17 -62 -31 -13 -13 -37 -26 -55 -30
-18 -3 -38 -13 -45 -22 -11 -13 -10 -14 12 -9 75 17 118 32 142 49 14 10 50
26 80 35 29 9 64 24 78 33 14 10 75 29 135 44 146 36 144 35 150 26 6 -10 60
-5 119 11 22 6 58 8 80 5 23 -3 69 1 104 8 53 12 64 12 69 0 2 -7 2 -18 -2
-24 -9 -15 12 -13 120 15 54 13 102 31 109 39 12 15 76 36 114 36 22 0 22 -1
7 -30 -9 -16 -20 -30 -25 -30 -6 0 -10 -4 -10 -10 0 -18 39 -10 50 10 6 11 17
20 25 20 8 0 15 6 15 14 0 8 9 18 20 21 11 4 18 11 15 16 -3 5 1 6 9 3 19 -7
177 24 190 37 6 5 18 9 27 9 10 0 21 5 24 10 4 6 3 10 -2 9 -25 -4 -33 2 -24
19 12 22 128 49 144 33 6 -6 24 -11 40 -11 15 0 26 -4 23 -9 -3 -4 6 -13 19
-19 14 -7 25 -16 25 -22 0 -5 5 -10 11 -10 14 0 139 -124 139 -137 0 -6 7 -13
15 -16 8 -4 21 -22 29 -42 8 -19 19 -35 23 -35 5 0 15 -16 22 -36 29 -79 -5
-74 513 -74 388 0 459 2 444 13 -10 8 -29 12 -42 9 -14 -2 -24 0 -24 7 0 6
-11 11 -24 11 -14 0 -28 5 -31 11 -4 6 -13 8 -21 5 -7 -3 -17 1 -21 8 -5 8
-25 17 -47 20 -21 4 -43 10 -50 14 -6 4 -20 7 -31 7 -11 1 -38 9 -60 19 -87
39 -130 61 -133 69 -2 4 -12 7 -23 7 -10 0 -19 6 -19 14 0 9 -8 12 -24 9 -13
-3 -27 0 -30 6 -10 16 24 26 44 13 9 -6 35 -8 57 -5 23 3 43 1 47 -5 4 -6 20
-7 43 -2 25 6 40 5 44 -2 6 -9 23 -9 63 -2 35 7 56 7 56 1 0 -5 22 -7 54 -3
34 5 56 3 60 -3 9 -13 66 -3 86 15 12 12 7 14 -35 16 -28 1 -72 3 -100 4 -152
6 -212 6 -233 0 -14 -5 -29 -3 -37 4 -9 7 -26 9 -40 6 -15 -4 -42 -4 -61 0
l-34 6 6 47 c5 39 3 49 -15 65 -12 11 -21 24 -21 31 0 7 -11 25 -25 41 -14 16
-25 37 -25 47 0 9 -5 17 -11 17 -16 0 -38 31 -39 53 0 9 -7 17 -15 17 -8 0
-15 8 -15 19 0 10 -11 29 -23 42 -31 31 -44 79 -22 79 8 0 15 5 15 10 0 6 -12
10 -26 10 -24 0 -84 48 -84 67 0 5 -11 20 -25 33 -14 13 -25 28 -25 33 0 8
-20 35 -70 95 -11 13 -20 28 -20 33 0 5 -7 9 -15 9 -8 0 -15 5 -15 11 0 7 -11
22 -24 34 -17 16 -32 20 -59 17 -24 -3 -51 3 -79 17 -24 11 -53 18 -64 15 -12
-3 -25 -1 -28 4 -3 6 -15 8 -26 5 -11 -3 -27 0 -35 7 -15 13 -55 5 -55 -12 0
-5 7 -7 15 -4 9 3 18 -1 22 -10 4 -11 13 -14 29 -10 14 4 24 2 24 -4 0 -5 15
-10 34 -10 26 0 35 -5 39 -22 8 -29 -1 -33 -103 -57 -73 -17 -86 -17 -93 -5
-4 8 -15 14 -22 14 -8 0 -15 4 -15 8 0 5 -16 14 -35 22 -19 8 -35 15 -35 17 0
1 9 17 20 35 11 18 20 41 20 50 0 9 11 38 25 64 14 26 25 53 25 59 0 7 10 15
22 18 21 6 18 22 -5 22 -5 0 -12 6 -14 13 -6 16 24 16 30 0 6 -14 46 28 47 48
0 7 11 15 25 18 32 8 125 -3 125 -15 0 -5 11 -7 24 -3 13 3 27 1 30 -5 4 -6
23 -11 42 -11 19 0 34 -3 34 -8 0 -4 18 -6 40 -4 23 3 40 0 40 -6 0 -11 30
-14 113 -13 28 1 47 -4 47 -10 0 -7 10 -9 24 -5 14 3 44 8 68 11 53 7 129 34
144 51 5 7 22 16 37 19 15 4 27 14 27 21 0 8 8 18 18 21 18 7 72 57 72 67 0 3
8 14 18 24 32 35 52 62 52 72 0 6 8 18 18 28 9 10 32 39 49 65 34 49 53 59 53
29 0 -10 3 -22 7 -26 4 -4 9 -18 10 -31 2 -14 12 -40 22 -58 15 -26 42 -103
56 -162 1 -5 5 -17 8 -25 3 -8 13 -46 23 -85 9 -38 20 -74 24 -79 5 -5 6 -15
3 -23 -3 -8 0 -13 7 -11 8 2 18 -17 27 -47 13 -49 16 -62 29 -119 4 -16 14
-43 23 -60 10 -17 26 -56 36 -86 11 -30 27 -67 37 -82 10 -14 21 -41 25 -58 3
-17 12 -34 19 -37 7 -2 20 -22 28 -44 9 -21 20 -39 25 -39 5 0 12 -11 15 -25
3 -13 20 -40 36 -59 17 -18 30 -39 30 -45 0 -6 7 -11 15 -11 8 0 15 -6 15 -14
0 -8 7 -22 16 -30 8 -9 13 -16 9 -16 -3 0 5 -11 19 -23 14 -13 23 -27 20 -30
-3 -3 3 -10 14 -16 11 -6 23 -7 26 -3 4 4 4 -6 0 -22 -5 -21 -4 -27 5 -22 6 4
11 2 11 -4 0 -6 5 -8 10 -5 6 3 10 -3 10 -14 0 -12 7 -21 15 -21 8 0 15 -5 15
-10 0 -6 16 -25 35 -43 19 -17 35 -35 35 -40 0 -12 86 -97 99 -97 6 0 11 -4
11 -10 0 -5 7 -10 15 -10 9 0 18 -7 21 -15 7 -18 24 -10 24 11 0 8 -4 13 -9
10 -10 -6 -25 24 -16 32 3 3 5 1 5 -5 0 -14 67 -49 77 -40 6 7 -51 67 -64 67
-9 0 -53 50 -53 61 0 5 -6 9 -14 9 -8 0 -18 9 -21 21 -4 12 -12 18 -21 15 -9
-3 -14 1 -14 14 0 11 -9 24 -20 30 -11 6 -20 15 -20 21 0 5 -9 20 -21 32 -11
12 -30 35 -42 51 -12 15 -30 36 -39 44 -10 9 -18 21 -18 27 0 5 -12 21 -25 34
-14 13 -25 29 -25 37 0 8 -6 14 -14 14 -13 0 -32 44 -27 63 1 5 -7 11 -18 14
-12 3 -21 17 -25 39 -4 18 -15 38 -26 44 -10 5 -21 23 -25 39 -3 17 -14 40
-24 53 -10 13 -26 49 -36 81 -10 31 -23 57 -29 57 -6 0 -24 53 -40 118 -16 64
-34 122 -40 127 -13 12 -39 95 -71 230 -5 21 -25 126 -25 132 0 2 6 3 14 3 9
0 20 -25 31 -73 10 -39 25 -78 34 -85 9 -7 15 -14 13 -15 -2 -1 2 -15 8 -32 6
-16 18 -56 27 -90 9 -33 26 -73 37 -90 12 -16 21 -32 22 -35 0 -3 4 -14 9 -25
4 -11 14 -35 21 -53 7 -17 20 -32 29 -32 9 0 18 -12 22 -30 3 -16 9 -30 14
-30 5 0 5 -7 2 -17 -4 -11 -3 -14 5 -9 7 4 12 1 12 -9 0 -9 4 -14 9 -11 9 6
24 -30 21 -52 0 -8 8 -16 19 -19 12 -3 23 -18 28 -41 9 -40 33 -56 33 -22 0
25 -15 56 -40 83 -10 10 -20 32 -24 48 -3 17 -10 28 -15 25 -10 -6 -31 45 -31
75 0 10 -9 23 -19 29 -12 6 -22 26 -26 50 -4 22 -11 40 -17 40 -6 0 -8 7 -5
14 4 10 1 13 -7 10 -13 -5 -36 56 -51 133 -4 19 -13 33 -21 33 -22 0 -16 17 8
23 27 7 44 -14 52 -66 4 -21 10 -35 16 -32 5 3 11 1 15 -5 3 -5 1 -10 -4 -10
-6 0 -11 -5 -11 -11 0 -5 4 -7 10 -4 11 7 11 6 15 -40 4 -58 16 -83 42 -90 14
-3 23 -8 20 -11 -3 -3 1 -21 9 -40 8 -18 13 -38 12 -43 -2 -5 14 -26 36 -45
26 -24 40 -47 42 -69 2 -17 9 -34 14 -35 6 -2 10 -10 10 -17 0 -8 16 -27 35
-42 33 -27 49 -53 23 -37 -8 5 -7 1 2 -10 18 -23 24 -66 9 -66 -6 0 -13 9 -16
19 -3 11 -11 22 -19 25 -8 3 -19 17 -24 31 -5 14 -14 25 -20 25 -13 0 -13 -36
1 -63 12 -22 16 -26 51 -70 13 -15 32 -39 43 -53 11 -15 28 -35 37 -45 10 -11
18 -21 18 -24 0 -6 39 -53 68 -81 12 -12 22 -26 22 -33 0 -6 7 -11 15 -11 8 0
15 -5 15 -10 0 -13 83 -95 104 -103 9 -4 16 -11 16 -16 0 -16 46 -57 58 -53 7
2 12 -1 12 -7 0 -13 43 -56 64 -64 9 -4 16 -11 16 -17 0 -6 4 -9 9 -6 5 3 11
-1 15 -9 3 -8 12 -15 21 -15 8 0 15 -4 15 -8 0 -4 22 -19 50 -33 27 -13 50
-27 50 -31 0 -5 162 -8 360 -8 l360 0 0 144 c0 108 -3 146 -13 155 -8 6 -17 8
-20 5 -10 -10 -207 -12 -207 -3 0 5 -17 8 -37 8 -77 0 -113 4 -113 11 0 5 -25
12 -55 15 -30 4 -55 11 -55 16 0 5 -9 9 -19 9 -11 0 -23 5 -26 10 -4 6 -15 8
-25 5 -11 -3 -20 0 -24 11 -3 8 -12 14 -19 11 -6 -2 -23 3 -37 12 -14 9 -37
23 -52 31 -16 7 -28 17 -28 22 0 4 -6 8 -13 8 -7 0 -24 13 -37 30 -14 16 -33
40 -43 52 -10 12 -20 32 -23 45 -4 13 -12 23 -18 23 -7 0 -21 28 -30 63 -10
34 -26 76 -37 93 -13 21 -20 56 -23 105 -3 41 -10 96 -16 122 -10 48 -11 61
-10 232 1 50 -3 115 -8 145 -4 31 -7 109 -6 175 1 66 -2 142 -7 169 -6 32 -6
52 1 56 6 3 4 27 -4 63 -13 54 -6 83 13 61 8 -9 40 -142 45 -185 1 -13 8 -37
14 -52 7 -16 12 -34 12 -42 0 -8 5 -17 10 -20 6 -4 8 -11 5 -16 -4 -5 -2 -9 3
-9 12 0 33 -52 38 -94 2 -16 15 -40 29 -54 14 -14 25 -32 25 -41 0 -9 7 -27
15 -41 8 -14 21 -40 30 -58 8 -17 22 -32 30 -32 8 0 15 -8 15 -19 0 -10 11
-30 25 -45 14 -15 25 -31 25 -37 0 -5 7 -9 15 -9 8 0 15 -5 15 -12 0 -6 17
-27 39 -47 44 -41 59 -76 37 -84 -14 -6 -16 -30 -4 -43 4 -3 16 4 28 16 19 19
30 22 73 17 28 -4 53 -10 56 -14 10 -13 83 -44 89 -38 3 3 0 5 -7 5 -8 0 -11
7 -7 15 3 8 0 14 -7 12 -7 -1 -11 4 -9 11 1 7 -8 12 -22 12 -14 0 -28 5 -31
11 -4 6 -13 8 -20 5 -7 -2 -16 2 -19 10 -3 8 -12 14 -20 14 -19 0 -28 50 -10
57 8 3 14 11 14 19 0 8 5 14 11 14 6 0 9 6 6 13 -3 7 6 24 19 36 14 13 22 26
19 29 -3 3 3 14 12 25 10 11 12 17 6 13 -7 -4 -13 -2 -13 3 0 6 4 11 8 11 5 0
14 16 22 35 8 19 17 35 22 35 4 0 8 9 8 20 0 11 5 20 10 20 6 0 10 11 10 25 0
14 5 25 11 25 6 0 8 7 5 15 -3 9 0 18 8 21 7 3 17 23 20 45 4 22 14 51 23 65
8 14 13 27 10 31 -3 3 1 12 9 20 8 9 12 23 9 34 -4 11 -2 19 4 19 6 0 11 8 11
18 0 10 5 23 12 30 7 7 9 12 5 12 -4 0 0 17 8 37 9 20 13 43 10 50 -2 8 2 16
10 19 10 4 13 14 9 30 -3 13 -2 24 4 24 9 0 17 30 26 97 1 13 6 26 9 30 4 3 7
19 7 34 0 15 5 31 11 35 6 3 9 17 6 30 -2 13 1 25 8 28 7 2 10 17 7 35 -3 20
0 31 8 31 8 0 11 9 8 25 -3 14 1 30 8 36 8 7 11 21 8 35 -4 16 -1 26 10 30 11
4 14 14 9 37 -6 29 -5 31 10 18 16 -13 17 92 15 1624 -3 1545 -4 1637 -20
1649 -10 7 -18 18 -18 24 0 17 -33 82 -41 82 -4 0 -13 17 -19 38 -7 20 -21 46
-31 57 -10 12 -22 35 -25 52 -3 18 -12 34 -20 37 -8 3 -14 20 -14 42 0 21 3
34 8 30 4 -4 7 -12 7 -16 0 -12 104 -110 117 -110 5 0 20 -12 33 -26 l25 -27
0 152 0 151 -600 0 -600 0 0 -39 c0 -22 -5 -41 -12 -43 -8 -3 -6 -16 9 -46
l20 -42 -31 0 c-17 0 -38 4 -46 9 -8 6 -19 7 -25 3 -5 -4 -21 -8 -35 -9 -76
-8 -88 -10 -98 -17 -26 -16 -11 -32 29 -31 22 0 43 -3 46 -8 3 -4 18 -5 33 -2
24 5 29 2 38 -22 7 -17 11 -21 11 -10 1 9 8 17 17 17 13 0 15 -6 9 -27 -4 -16
-9 -57 -10 -93 -1 -36 -7 -66 -14 -68 -6 -2 -11 -19 -11 -39 0 -38 -22 -43
-25 -5 -1 12 -5 25 -9 29 -9 10 -27 -18 -22 -34 3 -6 -2 -14 -10 -17 -23 -9
-16 -26 11 -26 31 0 33 -23 3 -44 -27 -19 -38 -13 -39 22 -1 18 -3 21 -6 9 -5
-18 -6 -18 -24 -1 -10 9 -19 25 -19 36 0 10 -4 18 -10 18 -5 0 -10 7 -10 15 0
8 -4 15 -10 15 -5 0 -10 6 -10 14 0 8 -15 36 -33 62 -36 53 -37 54 -37 84 0
13 -5 18 -15 14 -9 -4 -15 0 -15 9 0 9 -5 19 -11 22 -7 5 -9 -5 -7 -26 2 -21
8 -33 15 -32 7 2 13 -2 13 -7 0 -6 -4 -10 -10 -10 -5 0 -10 -5 -10 -11 0 -5 4
-8 9 -5 10 7 41 -111 47 -178 4 -51 8 -61 27 -61 6 0 14 -11 18 -25 8 -29 10
-102 2 -82 -8 21 -23 13 -23 -13 0 -16 6 -25 15 -25 11 0 15 -11 14 -42 l-1
-43 -13 30 c-8 17 -14 36 -15 43 0 6 -4 12 -9 12 -5 0 -12 8 -14 18 -7 27 -8
-31 -1 -67 4 -17 13 -31 20 -31 8 0 14 -4 14 -10 0 -5 -11 -10 -25 -10 -16 0
-25 -6 -25 -15 0 -18 75 -22 85 -5 9 14 35 -7 35 -26 0 -8 5 -14 10 -14 6 0
10 -8 10 -17 0 -10 7 -30 14 -45 l15 -28 -40 0 c-28 0 -39 -4 -39 -15 0 -11
11 -15 40 -15 29 0 40 -4 40 -15 0 -11 -11 -15 -41 -15 l-42 0 47 -46 c43 -44
62 -70 32 -45 -11 9 -17 6 -31 -15 -18 -27 -13 -46 7 -26 7 7 20 12 30 12 10
0 18 3 18 8 0 4 9 13 20 20 18 11 20 10 20 -8 0 -13 -7 -20 -18 -20 -19 0 -42
-18 -42 -33 0 -5 16 0 36 12 40 24 44 25 44 11 0 -5 -18 -21 -40 -35 -22 -14
-40 -32 -40 -40 0 -8 -4 -15 -10 -15 -14 0 -12 -27 3 -33 8 -4 7 -6 -3 -6 -8
0 -21 3 -29 8 -25 16 -48 2 -44 -27 3 -19 2 -23 -5 -13 -7 10 -11 5 -14 -18
-5 -32 8 -43 18 -16 6 14 34 22 34 10 0 -3 -13 -19 -30 -37 -22 -22 -27 -34
-20 -43 7 -9 7 -14 -2 -18 -9 -3 -14 7 -16 31 -1 20 -8 40 -15 44 -9 6 -9 8 1
8 6 0 12 4 12 10 0 5 -5 9 -11 7 -7 -1 -16 11 -20 28 -5 16 -15 35 -23 41 -14
9 -50 128 -63 201 -3 21 -12 33 -26 37 -21 6 -22 7 -3 21 16 12 17 15 4 20 -9
4 -23 36 -33 73 -10 37 -20 61 -23 54 -6 -19 -29 28 -37 76 -3 22 -15 48 -26
58 -10 9 -19 27 -19 39 0 12 -11 39 -25 59 -13 20 -33 55 -44 79 -11 23 -21
38 -21 32 0 -5 -11 7 -24 27 -17 29 -25 35 -34 26 -7 -7 -12 -17 -12 -22 0 -6
4 -5 9 3 6 9 12 -8 20 -50 6 -39 7 -67 1 -74 -15 -18 11 -81 33 -77 15 3 18
-3 16 -35 -1 -46 24 -129 38 -126 6 1 14 -4 17 -12 3 -8 0 -15 -6 -15 -6 0 -3
-9 6 -19 10 -11 19 -31 20 -44 1 -17 6 -23 16 -19 11 4 12 2 4 -7 -9 -10 -6
-19 11 -37 25 -27 42 -95 29 -115 -4 -7 -3 -9 3 -6 18 11 40 -48 46 -125 7
-80 -1 -101 -28 -78 -8 7 -15 9 -15 5 0 -5 -10 0 -22 11 -12 10 -18 13 -14 6
4 -7 5 -31 1 -53 -6 -32 -10 -39 -25 -34 -11 4 -28 -3 -45 -19 -24 -23 -25
-25 -8 -35 16 -9 16 -12 3 -21 -8 -5 -34 -10 -57 -10 -23 0 -45 -5 -48 -10 -5
-8 -11 -8 -20 0 -9 7 -16 6 -25 -5 -7 -8 -20 -15 -29 -15 -14 0 -14 -2 -1 -10
13 -9 13 -10 0 -10 -8 0 -29 17 -46 37 -27 32 -37 37 -70 36 -21 -1 -44 3 -50
8 -6 5 -16 1 -24 -11 -8 -11 -20 -20 -27 -20 -7 0 -13 -4 -13 -9 0 -5 -9 -12
-20 -16 -11 -3 -27 -22 -36 -41 -10 -20 -28 -40 -41 -45 -12 -4 -23 -15 -23
-24 0 -8 -7 -15 -15 -15 -9 0 -18 -7 -22 -15 -10 -27 -65 -76 -81 -73 -17 3
-35 65 -24 83 3 5 5 24 3 41 -2 23 3 33 16 38 15 6 15 8 3 16 -13 8 -12 10 2
10 10 0 17 3 17 8 -4 21 5 30 42 42 50 17 61 32 17 23 -54 -10 -78 -22 -78
-38 0 -8 -4 -15 -10 -15 -5 0 -7 7 -4 15 4 11 2 13 -9 10 -19 -8 -27 23 -38
160 -4 61 -13 130 -18 155 -12 54 -14 110 -3 110 8 0 28 -43 38 -83 3 -16 13
-31 20 -34 7 -2 18 -20 24 -38 6 -19 19 -37 30 -40 10 -3 20 -15 23 -25 6 -24
32 -26 53 -5 14 13 13 19 -7 47 -13 18 -27 35 -32 36 -4 2 -2 11 4 19 10 11
10 13 0 11 -7 -2 -29 27 -49 64 -32 58 -35 71 -24 88 6 11 12 30 12 42 0 19 2
20 10 8 5 -8 10 -27 10 -42 0 -17 5 -28 14 -28 7 0 22 -17 31 -37 10 -21 29
-52 42 -69 12 -17 23 -40 23 -52 0 -12 8 -23 20 -27 11 -3 23 -18 26 -33 10
-39 14 -44 29 -32 10 8 14 1 19 -30 4 -29 11 -40 24 -40 11 0 13 3 6 8 -6 4
-14 38 -17 77 -3 38 -11 71 -16 73 -6 2 -11 15 -11 28 0 13 -4 24 -8 24 -5 0
-16 17 -26 38 -25 56 -42 83 -49 75 -4 -3 -7 6 -7 21 0 14 -7 29 -15 32 -8 4
-15 14 -15 23 0 10 -9 27 -20 38 -10 12 -22 33 -26 47 -4 17 -13 26 -25 26
-20 0 -26 24 -9 35 12 7 -6 46 -26 58 -17 10 -18 34 -2 39 8 3 9 6 1 11 -5 3
-15 -5 -21 -18 -7 -15 -8 -25 -2 -25 6 0 10 -10 10 -22 0 -20 -3 -18 -21 12
-14 22 -17 36 -10 38 15 5 14 24 -3 47 -11 16 -17 17 -29 7 -12 -10 -15 -9
-20 8 -3 13 0 20 9 20 10 0 14 12 14 40 0 39 -1 40 -37 40 -34 0 -35 1 -18 14
18 13 17 14 -13 21 -45 9 -44 45 1 64 17 8 37 15 42 15 24 3 55 34 49 50 -7
19 -9 19 -54 5 -19 -6 -61 -11 -92 -10 -32 1 -58 -3 -58 -8 0 -5 18 -7 40 -4
26 4 40 2 40 -6 0 -6 -17 -11 -39 -11 -22 0 -42 -5 -44 -12 -4 -10 -6 -10 -6
-1 -1 7 -8 10 -17 6 -14 -5 -16 -1 -12 22 4 16 -1 43 -10 62 -16 33 -32 44
-32 21 0 -12 -32 21 -58 60 -11 18 -17 20 -23 10 -6 -8 -9 -9 -9 -2 0 7 -8 14
-19 17 -12 3 -20 18 -26 48 -4 24 -9 38 -12 32 -3 -7 -11 -13 -19 -13 -19 0
-18 -26 1 -34 9 -3 15 -18 15 -40 0 -44 9 -66 26 -66 8 0 13 -3 12 -7 -1 -5 2
-20 6 -34 4 -15 6 -38 4 -50 -4 -22 -5 -21 -20 11 l-16 35 -7 -30 -7 -30 -91
-1 c-86 -2 -92 -3 -95 -23 -5 -31 -22 -15 -22 20 0 19 -5 29 -15 29 -8 0 -15
-7 -15 -15 0 -8 -5 -15 -11 -15 -6 0 -9 9 -6 20 3 11 1 18 -4 14 -5 -3 -13 5
-18 18 -5 13 -16 30 -24 37 -9 7 -19 25 -22 41 -3 16 -13 31 -20 34 -8 3 -21
21 -29 41 -10 24 -21 35 -35 35 -12 0 -21 6 -21 14 0 8 -7 16 -15 20 -8 3 -15
17 -15 31 0 14 -4 25 -9 25 -16 0 0 -73 20 -96 11 -11 19 -26 19 -32 0 -20 24
-92 31 -92 4 0 10 -26 14 -57 4 -32 12 -65 18 -73 11 -13 10 -13 -5 -1 -12 9
-18 10 -18 2 0 -6 -16 -11 -35 -11 -19 0 -46 -5 -60 -12 -29 -13 -33 -11 -38
23 -3 15 -11 25 -25 27 -13 2 -22 11 -22 21 0 10 -18 37 -40 61 -39 42 -40 43
-40 17 0 -30 -20 -36 -40 -12 -7 8 -16 13 -20 10 -4 -2 -17 10 -29 26 -17 22
-20 34 -12 42 8 8 3 16 -17 29 -15 10 -30 18 -34 18 -14 0 -9 -23 9 -42 16
-17 16 -20 0 -35 -16 -16 -17 -15 -17 15 0 18 -4 32 -10 32 -5 0 -10 9 -10 20
0 27 -18 25 -23 -2 -3 -15 -5 -10 -6 13 -1 26 4 39 16 43 14 6 12 11 -12 36
-16 17 -37 30 -47 30 -10 0 -18 5 -18 10 0 6 9 10 19 10 14 0 18 5 14 20 -4
14 0 20 11 20 10 0 14 5 11 10 -3 6 -17 7 -31 4 -17 -4 -26 -1 -30 10 -6 15
-108 16 -1145 16 l-1139 0 0 -1214z m4980 1159 c0 -14 -4 -25 -10 -25 -11 0
-14 33 -3 43 11 11 13 8 13 -18z m-3 -67 c-3 -8 -6 -5 -6 6 -1 11 2 17 5 13 3
-3 4 -12 1 -19z m393 -19 c-11 -8 -12 -12 -2 -16 16 -6 15 -23 -2 -23 -18 0
-76 -57 -76 -74 0 -16 -42 -46 -66 -46 -11 0 -14 5 -10 17 4 9 1 20 -6 24 -10
6 -8 12 7 23 11 8 23 12 27 10 8 -5 76 45 106 79 9 9 21 17 27 17 5 0 3 -5 -5
-11z m-3170 -10 c0 -7 11 -8 32 -4 29 7 31 6 16 -9 -14 -13 -21 -14 -42 -4
-26 11 -35 28 -16 28 6 0 10 -5 10 -11z m-20 -53 c0 -3 -4 -8 -10 -11 -5 -3
-10 -1 -10 4 0 6 5 11 10 11 6 0 10 -2 10 -4z m2720 -20 c0 -3 -4 -8 -10 -11
-5 -3 -10 -1 -10 4 0 6 5 11 10 11 6 0 10 -2 10 -4z m286 -84 c-8 -9 -18 -13
-22 -10 -3 4 3 15 13 25 10 10 20 15 22 10 2 -5 -4 -16 -13 -25z m-6 -32 c0
-5 -4 -10 -10 -10 -5 0 -10 5 -10 10 0 6 5 10 10 10 6 0 10 -4 10 -10z m-2150
-220 c0 -5 -2 -10 -4 -10 -3 0 -8 5 -11 10 -3 6 -1 10 4 10 6 0 11 -4 11 -10z
m1795 -40 c-3 -5 -10 -10 -16 -10 -5 0 -9 5 -9 10 0 6 7 10 16 10 8 0 12 -4 9
-10z m47 -39 c-9 -5 -11 -17 -6 -34 5 -21 2 -27 -9 -27 -20 0 -31 16 -17 25 5
3 10 15 10 26 0 11 7 19 18 19 13 0 14 -2 4 -9z m5 -133 c-3 -8 -6 -5 -6 6 -1
11 2 17 5 13 3 -3 4 -12 1 -19z m-1287 -2 c0 -8 -4 -18 -10 -21 -5 -3 -10 3
-10 14 0 12 5 21 10 21 6 0 10 -6 10 -14z m-635 -25 c10 -17 -12 -21 -25 -6
-10 12 -10 15 3 15 9 0 18 -4 22 -9z m675 -5 c0 -3 -4 -8 -10 -11 -5 -3 -10
-1 -10 4 0 6 5 11 10 11 6 0 10 -2 10 -4z m1130 -6 c0 -5 -2 -10 -4 -10 -3 0
-8 5 -11 10 -3 6 -1 10 4 10 6 0 11 -4 11 -10z m-1106 -61 c3 -17 2 -38 -4
-47 -8 -14 -9 -12 -10 10 0 51 -23 79 -33 41 -4 -14 -5 -12 -6 5 -1 17 4 22
23 22 18 0 25 -7 30 -31z m36 -85 c0 -13 -5 -24 -11 -24 -8 0 -7 -5 1 -15 7
-9 10 -19 6 -23 -9 -8 -36 26 -36 45 0 7 5 13 10 13 6 0 10 9 10 21 0 11 5 17
10 14 6 -3 10 -17 10 -31z m1145 -93 c-6 -5 -25 10 -25 20 0 5 6 4 14 -3 8 -7
12 -15 11 -17z m-1 -45 c-10 -8 -21 -12 -24 -9 -3 2 4 11 14 19 11 7 22 12 25
9 2 -3 -4 -12 -15 -19z m-1307 -98 c-3 -8 -6 -5 -6 6 -1 11 2 17 5 13 3 -3 4
-12 1 -19z m25 -120 c-7 -7 -12 -8 -12 -2 0 6 3 14 7 17 3 4 9 5 12 2 2 -3 -1
-11 -7 -17z m-67 -38 c3 -5 -1 -10 -10 -10 -9 0 -13 5 -10 10 3 6 8 10 10 10
2 0 7 -4 10 -10z m67 -25 c-2 -14 -9 -25 -14 -25 -6 0 -7 7 -4 16 3 9 6 20 6
25 0 5 4 9 9 9 4 0 6 -11 3 -25z m994 -43 c13 -56 2 -70 -19 -24 -6 15 -20 33
-29 40 -22 16 -24 34 -3 26 8 -4 15 -1 15 6 0 6 6 10 12 8 7 -3 18 -28 24 -56z
m-92 7 c-3 -5 -10 -7 -15 -3 -5 3 -7 10 -3 15 3 5 10 7 15 3 5 -3 7 -10 3 -15z
m260 -63 c-3 -9 -10 -16 -15 -16 -6 0 -5 9 1 21 13 24 24 20 14 -5z m-492 -99
c6 -8 21 -12 33 -9 18 3 21 -2 22 -33 0 -20 6 -42 12 -48 8 -8 10 0 7 30 -4
37 -2 41 21 46 30 6 63 -2 63 -14 0 -5 5 -9 12 -9 7 0 34 -23 60 -52 42 -46
50 -62 69 -142 12 -50 23 -102 25 -116 2 -14 6 -34 8 -45 3 -11 5 -34 5 -52 1
-25 4 -30 20 -26 15 4 20 -3 25 -31 4 -20 4 -51 1 -70 -10 -50 71 -416 106
-479 5 -10 7 -22 4 -27 -4 -6 -1 -10 6 -10 15 0 5 -83 -10 -88 -22 -7 -11 -33
12 -30 21 3 22 -1 29 -84 3 -48 9 -92 12 -97 4 -5 1 -13 -5 -16 -7 -5 -8 -29
-4 -71 4 -35 3 -64 -1 -64 -5 0 -10 -39 -11 -87 -1 -47 -6 -89 -10 -92 -5 -3
-15 -25 -23 -48 -7 -24 -17 -43 -22 -43 -4 0 -8 -9 -8 -20 0 -11 -4 -20 -10
-20 -5 0 -10 -7 -10 -15 0 -8 -3 -15 -7 -15 -5 0 -13 -10 -19 -23 -41 -84 -83
-152 -134 -214 -6 -7 -10 -17 -10 -22 0 -6 -10 -21 -23 -35 -13 -14 -34 -46
-47 -72 -14 -25 -30 -48 -37 -51 -6 -3 -9 -11 -6 -19 3 -8 0 -14 -6 -14 -6 0
-16 -12 -21 -26 -6 -14 -21 -40 -35 -58 -14 -18 -25 -36 -25 -40 0 -4 -6 -14
-12 -21 -30 -33 -38 -45 -38 -55 0 -5 -4 -10 -10 -10 -5 0 -10 -7 -10 -15 0
-8 -4 -15 -10 -15 -5 0 -10 -4 -10 -10 0 -5 -16 -32 -35 -59 -19 -26 -35 -53
-35 -60 0 -6 -4 -11 -10 -11 -5 0 -10 -6 -10 -14 0 -8 -7 -17 -16 -20 -9 -4
-14 -13 -10 -21 3 -8 0 -15 -7 -15 -12 0 -55 -58 -69 -92 -4 -10 -12 -18 -18
-18 -5 0 -10 -7 -10 -15 0 -9 -7 -18 -15 -21 -8 -4 -15 -12 -15 -18 0 -7 -9
-22 -20 -34 -11 -12 -20 -24 -20 -28 0 -9 -115 -124 -138 -138 -10 -6 -30 -19
-43 -28 -38 -27 -159 -49 -229 -41 -33 3 -60 9 -60 13 0 4 -18 4 -40 0 -22 -4
-43 -3 -46 1 -3 5 -23 9 -45 9 -21 0 -39 5 -39 10 0 6 -13 8 -30 5 -19 -3 -30
-1 -30 6 0 7 -12 9 -35 5 -20 -4 -35 -3 -35 2 0 6 -26 13 -57 17 -32 4 -64 12
-70 17 -7 6 -28 7 -48 4 -24 -5 -35 -3 -35 5 0 8 -12 10 -35 6 -19 -3 -35 -2
-35 4 0 5 -13 9 -30 9 -16 0 -30 4 -30 8 0 4 -8 8 -17 9 -52 4 -103 17 -103
25 0 6 -11 8 -25 6 -14 -3 -28 -1 -31 3 -3 5 -16 9 -29 9 -14 0 -39 8 -58 19
-18 10 -52 22 -75 26 -26 4 -42 12 -42 21 0 8 -9 14 -20 14 -11 0 -20 4 -20 9
0 5 -15 12 -34 15 -36 7 -114 74 -154 132 -26 37 -39 84 -23 84 6 0 11 -4 11
-10 0 -5 9 -10 19 -10 10 0 22 -7 25 -16 3 -8 10 -13 16 -9 5 3 22 -5 37 -19
15 -14 31 -22 36 -19 5 3 12 1 16 -5 4 -7 17 -13 29 -15 12 -2 25 -6 28 -10 4
-4 20 -7 36 -7 15 0 28 -4 28 -8 0 -5 14 -7 30 -4 33 5 41 22 11 22 -11 0 -22
4 -25 8 -3 4 -27 14 -55 22 -28 7 -48 17 -46 20 3 4 -8 10 -24 13 -18 4 -30
14 -34 27 -3 12 -10 19 -16 15 -18 -10 -32 45 -26 99 6 58 -5 118 -22 123 -12
4 -10 -70 3 -111 4 -13 3 -16 -7 -11 -9 6 -11 3 -6 -9 13 -32 -23 -30 -54 3
-16 18 -29 36 -29 42 0 5 -6 9 -14 9 -8 0 -17 11 -20 25 -4 14 -13 25 -20 25
-8 0 -17 11 -20 25 -3 13 -15 29 -26 35 -11 6 -20 17 -20 25 0 8 -9 23 -21 34
-11 10 -25 38 -30 62 -6 23 -18 48 -27 55 -9 8 -13 14 -8 14 5 0 2 8 -6 18
-19 21 -29 60 -18 67 11 7 60 -38 60 -54 0 -6 6 -11 13 -11 18 0 67 -24 67
-32 0 -5 14 -8 30 -8 17 0 30 -4 30 -10 0 -5 9 -10 19 -10 11 0 21 -5 23 -11
2 -7 21 4 43 25 22 20 45 36 51 36 11 0 74 58 74 69 0 4 11 14 25 21 14 7 25
19 25 27 0 7 5 13 10 13 6 0 10 5 10 11 0 7 8 18 18 25 10 7 17 26 18 46 0 18
4 53 8 78 5 31 3 65 -7 105 -9 33 -18 87 -20 120 -8 101 -86 423 -99 410 -3
-3 -11 16 -18 42 -8 26 -24 58 -37 70 -13 12 -23 27 -23 33 0 5 -7 10 -15 10
-8 0 -15 5 -15 10 0 6 -9 10 -20 10 -32 0 -23 18 18 36 27 11 53 14 96 10 33
-3 86 -1 118 6 41 9 61 9 69 1 7 -7 23 -8 46 -3 23 6 42 4 54 -3 14 -8 27 -8
51 0 53 18 112 25 138 15 26 -9 60 -5 60 6 0 14 -60 40 -79 35 -17 -4 -21 -1
-21 21 0 19 -5 26 -20 26 -11 0 -20 5 -20 10 0 6 -11 10 -24 10 -14 0 -28 5
-32 11 -4 7 -21 9 -47 5 -26 -4 -43 -3 -47 5 -6 8 -20 8 -56 1 -32 -7 -52 -7
-59 -1 -14 14 8 26 60 34 23 3 51 12 61 21 17 13 14 14 -35 9 -30 -3 -58 -8
-63 -11 -5 -3 -15 -1 -22 5 -7 6 -29 9 -49 7 -25 -4 -37 -1 -41 10 -3 8 -10
13 -15 9 -6 -3 -13 11 -17 32 -4 21 -10 43 -14 48 -4 6 -10 20 -13 33 -6 26
20 44 33 22 5 -8 17 -10 34 -6 35 9 33 26 -4 26 -16 0 -30 5 -30 10 0 6 -6 10
-12 9 -39 -5 -56 2 -60 26 -3 14 -2 25 1 25 4 0 16 7 27 16 18 14 17 15 -14
11 -24 -3 -35 1 -40 12 -3 9 -10 19 -15 22 -5 3 -24 57 -43 120 -19 62 -40
120 -48 128 -11 13 -36 94 -36 115 0 16 22 3 32 -19 6 -13 15 -22 19 -19 4 2
13 -5 19 -16 6 -11 15 -18 20 -15 4 3 14 -8 22 -25 7 -16 18 -30 25 -30 6 0
14 -9 18 -20 3 -11 19 -27 36 -37 16 -9 29 -20 29 -23 0 -3 16 -23 35 -43 19
-20 35 -34 35 -30 0 5 9 -5 20 -22 11 -16 20 -27 20 -24 0 3 33 -27 74 -67 41
-41 79 -74 85 -74 6 0 11 -7 11 -15 0 -8 5 -15 11 -15 13 0 47 -35 94 -95 17
-22 47 -58 68 -80 20 -22 37 -43 37 -47 0 -5 7 -8 15 -8 8 0 15 -5 15 -12 0
-14 96 -108 110 -108 6 0 10 -6 10 -12 0 -7 22 -29 48 -48 26 -19 51 -41 55
-47 4 -7 13 -13 20 -13 7 0 18 -9 25 -20 7 -11 16 -20 22 -20 12 0 1 32 -15
45 -19 16 -85 139 -85 158 0 10 -9 25 -20 34 -11 10 -20 25 -20 33 0 9 -13 36
-28 61 -16 24 -32 57 -36 72 -3 15 -20 57 -36 93 -30 65 -38 104 -21 104 5 0
14 -13 20 -30 5 -16 17 -30 25 -30 9 0 16 -6 16 -14 0 -8 8 -21 18 -28 9 -7
25 -25 34 -39 9 -14 30 -40 47 -57 17 -17 31 -35 31 -41 0 -6 5 -11 11 -11 16
0 69 -53 69 -68 0 -8 6 -12 13 -9 6 2 17 -8 23 -22 6 -14 24 -33 40 -41 16 -8
31 -17 34 -20 25 -25 54 -31 106 -20 42 9 58 9 69 0 8 -7 24 -10 35 -7 11 3
23 0 28 -6 8 -14 47 -37 62 -37 5 0 10 7 10 15 0 8 -5 15 -10 15 -6 0 -20 11
-32 25 -12 14 -28 25 -35 25 -7 0 -13 11 -13 24 0 14 -8 31 -18 38 -21 14 -35
55 -22 63 4 3 22 -9 40 -25 18 -17 38 -30 45 -30 7 0 16 -11 19 -25 4 -14 13
-25 21 -25 8 0 15 -7 15 -15 0 -10 7 -15 18 -13 11 2 18 -4 20 -19 2 -15 10
-23 23 -23 10 0 19 -7 19 -15 0 -8 9 -15 20 -15 11 0 20 -4 20 -10 0 -5 5 -10
11 -10 13 0 2 40 -15 55 -17 16 -33 47 -41 84 -4 18 -13 35 -21 38 -8 3 -13
10 -12 17 1 6 -5 36 -14 66 -8 30 -25 96 -36 145 -12 50 -29 123 -38 164 -17
69 -17 74 -1 86 21 15 22 25 2 25 -9 0 -20 11 -25 26 -19 50 -71 306 -65 322
9 23 21 5 39 -60 11 -38 22 -59 35 -63 13 -4 18 -13 16 -25 -2 -11 0 -20 4
-20 4 0 8 -14 9 -32 0 -17 5 -34 11 -37 14 -9 10 -69 -6 -75 -28 -11 -13 -27
20 -21 l33 6 12 -58 c14 -67 15 -106 5 -117 -7 -7 -10 -17 -20 -70 -4 -20 -2
-27 6 -22 6 4 9 12 6 17 -4 5 6 9 20 9 20 0 26 4 21 15 -3 8 -1 15 5 15 6 0
13 -9 16 -20 6 -23 33 -27 33 -5 0 8 4 15 9 15 5 0 12 12 16 28 l7 27 10 -25
c5 -14 12 -38 14 -55 5 -36 5 -38 44 -190 31 -125 57 -195 72 -195 4 0 8 -7 8
-15 0 -8 6 -15 13 -15 8 0 19 -12 25 -26 7 -14 17 -22 23 -19 6 4 13 -2 16
-14 3 -12 10 -22 17 -22 33 -4 119 5 133 14 5 4 30 9 54 12 24 4 53 10 64 15
11 4 27 10 36 13 13 4 15 13 10 44 -5 27 -2 47 10 69 12 22 17 59 19 135 1 57
2 111 3 119 0 14 -10 154 -18 245 -2 22 -9 62 -15 89 -6 27 -12 61 -15 75 -2
14 -8 40 -13 58 -6 17 -9 33 -7 35 6 5 -61 140 -68 139 -21 -3 -28 0 -22 8 3
5 -3 12 -14 16 -40 12 -34 56 11 71 11 3 29 15 39 25 22 22 43 24 61 6z m-645
-49 c-3 -8 -6 -5 -6 6 -1 11 2 17 5 13 3 -3 4 -12 1 -19z m-13 -24 c3 -8 2
-12 -4 -9 -6 3 -10 10 -10 16 0 14 7 11 14 -7z m-2374 -98 c0 -3 -4 -8 -10
-11 -5 -3 -10 -1 -10 4 0 6 5 11 10 11 6 0 10 -2 10 -4z m192 -201 c5 -27 20
-66 33 -85 13 -19 29 -55 36 -80 7 -25 22 -58 33 -75 12 -16 30 -56 40 -87 10
-31 25 -59 32 -62 6 -2 15 -20 19 -38 7 -29 30 -75 45 -88 3 -3 12 -24 19 -48
6 -24 18 -45 25 -48 8 -3 22 -26 31 -51 10 -25 26 -54 36 -64 11 -11 19 -25
19 -32 0 -22 -29 -54 -53 -61 -15 -3 -32 -22 -47 -51 -41 -81 -86 -85 -77 -8
6 60 -45 279 -83 356 -16 33 -48 135 -71 230 -23 95 -44 179 -47 187 -3 8 -4
19 -3 24 1 4 -3 14 -10 22 -6 7 -8 18 -5 23 4 5 2 12 -2 15 -5 3 -9 22 -10 42
-1 20 -4 45 -7 55 -4 10 -3 24 1 30 9 15 32 -39 46 -106z m-552 63 c0 -6 -6
-5 -15 2 -8 7 -15 14 -15 16 0 2 7 1 15 -2 8 -4 15 -11 15 -16z m-700 -8 c0
-5 -2 -10 -4 -10 -3 0 -8 5 -11 10 -3 6 -1 10 4 10 6 0 11 -4 11 -10z m810
-10 c0 -5 -5 -10 -11 -10 -5 0 -7 5 -4 10 3 6 8 10 11 10 2 0 4 -4 4 -10z
m-679 -27 c-12 -20 -14 -14 -5 12 4 9 9 14 11 11 3 -2 0 -13 -6 -23z m542 20
c-7 -2 -21 -2 -30 0 -10 3 -4 5 12 5 17 0 24 -2 18 -5z m-510 -33 c3 -11 1
-20 -4 -20 -5 0 -9 9 -9 20 0 11 2 20 4 20 2 0 6 -9 9 -20z m-153 -26 c0 -14
-4 -23 -10 -19 -5 3 -10 15 -10 26 0 10 5 19 10 19 6 0 10 -12 10 -26z m688
-49 c-3 -3 -9 2 -12 12 -6 14 -5 15 5 6 7 -7 10 -15 7 -18z m52 15 c0 -5 -5
-10 -11 -10 -5 0 -7 5 -4 10 3 6 8 10 11 10 2 0 4 -4 4 -10z m-180 -10 c0 -5
-2 -10 -4 -10 -3 0 -8 5 -11 10 -3 6 -1 10 4 10 6 0 11 -4 11 -10z m911 -25
c7 -19 17 -35 23 -35 5 0 7 -3 4 -6 -4 -3 1 -14 10 -24 10 -10 26 -31 37 -45
11 -15 29 -37 40 -50 11 -13 31 -38 45 -56 28 -35 62 -76 83 -99 34 -37 19
-80 -28 -80 -8 0 -15 -7 -15 -16 0 -11 5 -14 18 -9 75 31 123 21 142 -31 5
-13 15 -23 21 -22 16 4 29 -44 16 -59 -5 -7 -18 -13 -28 -13 -11 0 -19 -7 -19
-15 0 -8 -7 -15 -15 -15 -9 0 -27 -12 -40 -26 -14 -15 -36 -28 -50 -30 -21 -2
-29 4 -43 37 -9 21 -20 39 -24 39 -10 0 -30 78 -23 90 3 6 15 10 25 10 10 0
22 5 26 11 5 8 -3 10 -27 7 -54 -8 -79 27 -115 162 -8 30 -21 61 -28 70 -14
15 -47 129 -60 203 -9 47 8 49 25 2z m-1312 -8 c0 -21 -1 -21 -9 -2 -12 28
-12 37 0 30 6 -3 10 -16 9 -28z m99 15 c2 -7 -3 -12 -12 -12 -9 0 -16 7 -16
16 0 17 22 14 28 -4z m-321 -27 c-1 -20 -7 -35 -14 -35 -15 0 -17 16 -3 25 6
3 10 15 10 26 0 10 2 19 5 19 3 0 4 -16 2 -35z m593 31 c0 -3 -4 -8 -10 -11
-5 -3 -10 -1 -10 4 0 6 5 11 10 11 6 0 10 -2 10 -4z m-504 -33 c-6 -15 -9 -15
-16 -3 -6 9 -5 17 3 22 16 10 21 2 13 -19z m624 17 c0 -5 -2 -10 -4 -10 -3 0
-8 5 -11 10 -3 6 -1 10 4 10 6 0 11 -4 11 -10z m-446 -44 c-3 -9 -14 -21 -24
-26 -14 -7 -19 -5 -23 10 -6 22 8 28 16 8 2 -7 8 0 12 15 5 17 11 25 17 19 5
-5 6 -16 2 -26z m241 3 c11 -17 -1 -21 -15 -4 -8 9 -8 15 -2 15 6 0 14 -5 17
-11z m-402 -19 c-3 -11 -7 -20 -9 -20 -2 0 -4 9 -4 20 0 11 4 20 9 20 5 0 7
-9 4 -20z m213 -17 c-10 -10 -19 5 -10 18 6 11 8 11 12 0 2 -7 1 -15 -2 -18z
m194 -15 c0 -13 -23 -5 -28 10 -2 7 2 10 12 6 9 -3 16 -11 16 -16z m-390 -13
c0 -8 5 -15 10 -15 6 0 10 -5 10 -10 0 -6 -8 -5 -20 2 -21 13 -27 38 -10 38 6
0 10 -7 10 -15z m514 -12 c-5 -17 -9 -19 -19 -10 -10 9 -9 14 4 24 20 14 22
13 15 -14z m-599 7 c3 -5 -1 -10 -10 -10 -9 0 -13 5 -10 10 3 6 8 10 10 10 2
0 7 -4 10 -10z m55 -10 c0 -5 -7 -7 -15 -4 -8 4 -15 8 -15 10 0 2 7 4 15 4 8
0 15 -4 15 -10z m260 -10 c0 -5 -5 -10 -11 -10 -5 0 -7 5 -4 10 3 6 8 10 11
10 2 0 4 -4 4 -10z m-52 -18 c2 -7 -6 -12 -17 -12 -21 0 -27 11 -14 24 9 9 26
2 31 -12z m162 10 c0 -5 -7 -9 -15 -9 -8 0 -12 4 -9 9 3 4 9 8 15 8 5 0 9 -4
9 -8z m88 -29 c-8 -15 -20 -27 -26 -25 -7 1 -12 -6 -12 -15 0 -15 -2 -16 -9
-3 -12 18 -5 30 19 30 11 0 20 10 24 26 4 15 9 24 12 21 3 -3 -1 -18 -8 -34z
m-440 -3 c-8 -12 -16 -16 -22 -10 -6 6 -4 15 4 24 17 22 32 9 18 -14z m301 8
c0 -13 -3 -17 -6 -10 -2 6 -11 12 -19 12 -9 0 -12 5 -9 10 12 19 35 10 34 -12z
m3174 7 c4 -8 2 -17 -3 -20 -6 -4 -10 3 -10 14 0 25 6 27 13 6z m-3419 -44
c-7 -9 -34 10 -34 24 0 13 3 12 18 -2 10 -10 17 -20 16 -22z m276 29 c0 -5 -4
-10 -10 -10 -5 0 -10 5 -10 10 0 6 5 10 10 10 6 0 10 -4 10 -10z m-55 -10 c3
-5 -1 -10 -10 -10 -9 0 -13 5 -10 10 3 6 8 10 10 10 2 0 7 -4 10 -10z m222
-12 c-3 -8 -6 -5 -6 6 -1 11 2 17 5 13 3 -3 4 -12 1 -19z m-61 -23 c-17 -26
-21 -55 -8 -55 4 0 5 -21 2 -47 -5 -44 -7 -48 -37 -54 -18 -3 -33 -3 -33 2 0
5 12 9 26 9 26 0 26 1 22 57 -4 47 -1 63 15 85 26 35 35 37 13 3z m-476 -43
c0 -46 -16 -31 -26 23 -6 36 -6 39 9 26 10 -8 17 -28 17 -49z m193 38 c-3 -11
-7 -20 -9 -20 -2 0 -4 9 -4 20 0 11 4 20 9 20 5 0 7 -9 4 -20z m37 4 c0 -9 -5
-12 -11 -8 -9 5 -10 -1 -5 -20 4 -18 3 -25 -4 -21 -5 3 -10 1 -10 -6 0 -7 -2
-10 -5 -8 -8 8 15 79 25 79 6 0 10 -7 10 -16z m66 -20 c-6 -13 -15 -24 -19
-24 -5 0 -5 4 -2 10 3 5 1 18 -4 28 -9 17 -7 18 13 15 21 -4 22 -7 12 -29z
m-199 9 c3 -7 -3 -9 -16 -6 -12 3 -21 10 -21 15 0 13 32 6 37 -9z m163 -13 c0
-5 -8 -10 -17 -10 -15 0 -16 2 -3 10 19 12 20 12 20 0z m160 -6 c0 -8 -5 -12
-10 -9 -6 4 -8 11 -5 16 9 14 15 11 15 -7z m-390 -4 c0 -5 -4 -10 -10 -10 -5
0 -10 5 -10 10 0 6 5 10 10 10 6 0 10 -4 10 -10z m478 -1 c-2 -6 -8 -10 -13
-10 -5 0 -11 4 -13 10 -2 6 4 11 13 11 9 0 15 -5 13 -11z m-388 -23 c0 -8 -8
-20 -17 -27 -15 -12 -16 -12 -8 1 5 8 8 23 6 34 -1 11 2 16 8 12 6 -4 11 -13
11 -20z m-30 0 c0 -20 -26 -40 -35 -26 -4 6 -15 8 -26 5 -11 -4 -19 -2 -19 4
0 6 11 11 24 11 14 0 28 5 31 10 9 15 25 12 25 -4z m163 -6 c3 -11 1 -18 -4
-14 -5 3 -9 12 -9 20 0 20 7 17 13 -6z m141 14 c9 -3 16 -10 16 -16 0 -5 -4
-6 -10 -3 -20 12 -32 -7 -13 -21 16 -12 16 -13 1 -14 -9 0 -18 -5 -20 -11 -2
-7 -13 -9 -25 -5 -15 5 -20 12 -16 24 4 10 8 12 11 4 2 -7 10 -12 19 -12 10 0
12 6 8 20 -4 13 -2 20 7 21 7 0 4 4 -7 9 -16 7 -17 9 -3 9 9 1 23 -2 32 -5z
m-160 -29 c3 -8 1 -15 -4 -15 -6 0 -10 7 -10 15 0 8 2 15 4 15 2 0 6 -7 10
-15z m990 -30 c5 -22 4 -26 -4 -15 -5 8 -10 24 -10 34 0 26 6 18 14 -19z
m-1217 -17 c-3 -7 -5 -2 -5 12 0 14 2 19 5 13 2 -7 2 -19 0 -25z m89 -10 c-2
-18 -4 -37 -5 -41 0 -5 -10 -6 -20 -2 -14 4 -20 1 -23 -12 -2 -11 -6 -14 -10
-7 -4 6 3 21 16 35 12 13 25 32 29 42 10 27 17 20 13 -15z m-46 7 c0 -8 -4
-15 -9 -15 -5 0 -11 7 -15 15 -3 9 0 15 9 15 8 0 15 -7 15 -15z m360 5 c0 -5
-5 -10 -11 -10 -5 0 -7 5 -4 10 3 6 8 10 11 10 2 0 4 -4 4 -10z m-42 -25 c-6
-6 -58 8 -58 16 0 4 14 3 31 -3 16 -6 29 -12 27 -13z m-235 9 c3 -4 -1 -21
-10 -38 -14 -26 -18 -28 -21 -12 -2 10 2 22 8 26 7 4 9 13 6 19 -8 12 6 15 17
5z m407 -8 c0 -11 -19 -15 -25 -6 -3 5 1 10 9 10 9 0 16 -2 16 -4z m167 -2
c-3 -3 -12 -4 -19 -1 -8 3 -5 6 6 6 11 1 17 -2 13 -5z m-373 -20 c8 -21 -3
-56 -15 -49 -12 8 -12 65 0 65 5 0 12 -7 15 -16z m-49 -15 c0 -8 10 -24 22
-36 22 -22 22 -22 28 -2 8 24 31 20 27 -5 -2 -9 2 -16 8 -16 5 0 10 -7 10 -15
0 -8 -5 -15 -10 -15 -6 0 -13 7 -16 15 -8 20 -24 19 -25 -2 -1 -17 -2 -17 -6
0 -6 23 -23 22 -23 -3 0 -11 5 -20 10 -20 17 0 11 -37 -7 -51 -16 -13 -17 -12
-4 3 11 15 11 22 -4 44 -12 19 -14 29 -6 37 18 18 12 29 -11 22 -18 -5 -20 -4
-8 4 13 9 13 11 -2 11 -10 0 -18 5 -18 10 0 6 4 10 10 10 5 0 7 7 3 16 -4 12
-2 15 8 12 8 -3 14 -11 14 -19z m101 -6 c-10 -10 -19 5 -10 18 6 11 8 11 12 0
2 -7 1 -15 -2 -18z m304 7 c0 -5 -4 -10 -10 -10 -5 0 -10 5 -10 10 0 6 5 10
10 10 6 0 10 -4 10 -10z m-180 -9 c0 -6 -4 -13 -10 -16 -5 -3 -10 1 -10 9 0 9
5 16 10 16 6 0 10 -4 10 -9z m737 -13 c-3 -8 -6 -5 -6 6 -1 11 2 17 5 13 3 -3
4 -12 1 -19z m-817 8 c0 -3 -4 -8 -10 -11 -5 -3 -10 -1 -10 4 0 6 5 11 10 11
6 0 10 -2 10 -4z m300 -6 c0 -5 -2 -10 -4 -10 -3 0 -8 5 -11 10 -3 6 -1 10 4
10 6 0 11 -4 11 -10z m-638 -38 c-7 -2 -12 -10 -12 -18 0 -9 5 -12 13 -8 9 5
9 4 0 -6 -6 -7 -16 -9 -22 -6 -16 10 -13 46 4 46 9 0 12 6 9 18 -4 13 -3 13 7
-2 9 -15 9 -21 1 -24z m38 18 c0 -5 -2 -10 -4 -10 -3 0 -8 5 -11 10 -3 6 -1
10 4 10 6 0 11 -4 11 -10z m-215 -10 c3 -5 1 -10 -4 -10 -6 0 -11 5 -11 10 0
6 2 10 4 10 3 0 8 -4 11 -10z m632 4 c-3 -3 -12 -4 -19 -1 -8 3 -5 6 6 6 11 1
17 -2 13 -5z m4528 -76 c18 -37 29 -83 35 -148 6 -52 12 -102 15 -110 2 -8 6
-32 9 -53 4 -21 15 -79 26 -129 11 -50 19 -118 19 -152 0 -34 7 -97 15 -140
10 -49 12 -82 6 -86 -5 -3 -7 -21 -4 -40 7 -50 11 -250 4 -250 -3 0 -5 -46 -5
-103 0 -56 -4 -108 -9 -115 -5 -7 -6 -28 -3 -47 3 -19 2 -35 -4 -35 -5 0 -9
-13 -9 -29 0 -60 -13 -121 -26 -121 -17 0 -24 41 -25 140 0 25 -8 83 -18 130
-26 120 -32 168 -23 174 5 3 5 27 0 53 -5 26 -11 89 -13 138 -3 50 -8 117 -14
150 -5 38 -5 64 1 72 5 7 7 17 3 23 -4 6 -8 55 -10 108 -2 53 -6 123 -10 155
-5 37 -4 57 3 57 6 0 7 13 2 38 -5 20 -9 78 -10 127 -1 84 -2 107 -1 208 0 52
16 46 46 -15z m-3829 15 c-10 -10 -19 5 -10 18 6 11 8 11 12 0 2 -7 1 -15 -2
-18z m-1069 -3 c1 -11 9 -47 17 -81 19 -71 20 -89 6 -89 -5 0 -10 12 -11 28
-1 33 -17 78 -18 50 -1 -19 -41 -26 -41 -8 0 5 6 7 14 4 12 -4 13 2 6 32 -6
28 -5 43 7 60 19 29 18 29 20 4z m179 -10 c8 0 14 -4 14 -10 0 -5 8 -10 19
-10 34 0 42 -23 17 -47 -27 -26 -36 -21 -36 19 0 21 -5 28 -20 28 -14 0 -20 6
-19 23 0 12 3 16 6 10 2 -7 11 -13 19 -13z m54 10 c0 -5 -5 -10 -11 -10 -5 0
-7 5 -4 10 3 6 8 10 11 10 2 0 4 -4 4 -10z m703 -30 c-3 -11 -9 -17 -14 -15
-10 7 -1 35 11 35 5 0 6 -9 3 -20z m-782 -63 c-13 -13 -21 5 -14 33 l6 24 9
-24 c5 -14 5 -27 -1 -33z m-191 22 c0 -5 -4 -9 -10 -9 -5 0 -10 7 -10 16 0 8
5 12 10 9 6 -3 10 -10 10 -16z m580 7 c0 -9 -30 -14 -35 -6 -4 6 3 10 14 10
12 0 21 -2 21 -4z m-163 -32 c-3 -3 -12 -4 -19 -1 -8 3 -5 6 6 6 11 1 17 -2
13 -5z m-158 -38 c6 -4 11 -14 11 -22 0 -18 96 -20 102 -2 3 9 6 9 12 0 9 -15
-32 -32 -77 -32 -38 0 -121 42 -125 63 -3 12 3 14 31 7 19 -4 40 -10 46 -14z
m-429 -2 c0 -8 -4 -12 -10 -9 -5 3 -10 10 -10 16 0 5 5 9 10 9 6 0 10 -7 10
-16z m200 6 c0 -5 -9 -10 -20 -10 -11 0 -20 5 -20 10 0 6 9 10 20 10 11 0 20
-4 20 -10z m70 -28 c0 -7 -4 -10 -10 -7 -5 3 -10 16 -10 28 0 18 2 19 10 7 5
-8 10 -21 10 -28z m340 2 c0 -8 -4 -12 -10 -9 -5 3 -10 13 -10 21 0 8 5 12 10
9 6 -3 10 -13 10 -21z m-398 -11 c2 -10 10 -18 18 -19 46 -3 47 -4 42 -35 -3
-22 -1 -30 7 -25 7 5 11 -7 11 -38 0 -27 -5 -46 -11 -46 -6 0 -9 6 -6 14 3 8
2 16 -3 18 -9 3 -17 33 -19 66 -1 7 -6 10 -12 7 -12 -8 -38 23 -39 47 0 9 -8
19 -17 21 -14 4 -13 5 4 6 13 1 23 -6 25 -16z m177 -19 c6 4 21 0 33 -8 l22
-16 -22 0 c-30 0 -62 17 -62 33 0 8 3 8 9 -2 5 -7 14 -10 20 -7z m224 -51 c-8
-21 -20 -14 -20 11 0 19 2 22 12 13 7 -7 10 -18 8 -24z m-85 -9 c-14 -14 -15
-14 -10 11 3 19 8 23 15 16 8 -8 7 -16 -5 -27z m-475 4 c9 -31 2 -33 -11 -3
-6 14 -8 25 -3 25 5 0 11 -10 14 -22z m377 12 c0 -5 -5 -10 -11 -10 -5 0 -7 5
-4 10 3 6 8 10 11 10 2 0 4 -4 4 -10z m250 -10 c0 -11 -4 -20 -8 -20 -4 0 -8
9 -8 20 0 11 4 20 8 20 4 0 8 -9 8 -20z m-230 -22 c0 -4 -6 -8 -14 -8 -8 0
-17 4 -20 8 -2 4 4 8 15 8 10 0 19 -4 19 -8z m40 8 c0 -3 -4 -8 -10 -11 -5 -3
-10 -1 -10 4 0 6 5 11 10 11 6 0 10 -2 10 -4z m130 -16 c0 -5 -4 -10 -10 -10
-5 0 -10 5 -10 10 0 6 5 10 10 10 6 0 10 -4 10 -10z m-550 -47 c0 -7 -4 -13
-10 -13 -5 0 -10 4 -10 9 0 5 -9 11 -21 14 -12 3 -18 10 -15 16 9 14 56 -8 56
-26z m229 -37 c-9 -8 -10 -5 -5 14 3 14 7 34 7 45 1 11 4 5 6 -14 3 -19 -1
-39 -8 -45z m145 34 c-6 -6 -10 -2 -11 12 -2 16 1 18 10 9 7 -7 8 -14 1 -21z
m40 3 c-4 -10 -8 -31 -8 -47 -1 -16 -6 -31 -13 -33 -8 -3 -11 8 -10 31 1 20 5
36 10 36 4 0 7 7 7 15 0 8 5 15 11 15 7 0 8 -7 3 -17z m46 -4 c0 -5 -4 -9 -10
-9 -5 0 -10 7 -10 16 0 8 5 12 10 9 6 -3 10 -10 10 -16z m828 -4 c-3 -3 -9 2
-12 12 -6 14 -5 15 5 6 7 -7 10 -15 7 -18z m-1300 -16 c33 -12 27 -30 -10 -27
-20 2 -33 9 -36 20 -5 20 -22 25 -22 6 0 -6 -3 -9 -6 -5 -3 3 -3 11 1 17 6 10
21 8 73 -11z m542 1 c0 -5 -6 -10 -14 -10 -8 0 -18 5 -21 10 -3 6 3 10 14 10
12 0 21 -4 21 -10z m420 0 c0 -5 -4 -10 -10 -10 -5 0 -10 5 -10 10 0 6 5 10
10 10 6 0 10 -4 10 -10z m-677 -37 c-5 -12 -2 -15 10 -10 9 3 17 2 17 -3 0 -6
-7 -10 -15 -10 -8 0 -15 -7 -15 -16 0 -8 -4 -12 -10 -9 -11 7 -14 58 -4 68 12
11 23 -3 17 -20z m167 6 c0 -11 -4 -17 -10 -14 -5 3 -10 13 -10 21 0 8 5 14
10 14 6 0 10 -9 10 -21z m850 -9 c0 -5 -5 -10 -11 -10 -5 0 -7 5 -4 10 3 6 8
10 11 10 2 0 4 -4 4 -10z m-799 -26 c11 -13 9 -14 -14 -9 -22 6 -27 4 -27 -11
0 -9 -3 -15 -6 -11 -10 9 6 47 20 47 8 0 19 -7 27 -16z m-191 -24 c0 -11 5
-20 11 -20 5 0 7 5 4 10 -3 6 -2 10 3 10 11 0 24 -41 16 -49 -3 -3 -10 1 -15
9 -8 12 -10 10 -6 -7 7 -33 -2 -28 -14 6 -7 21 -15 28 -26 24 -13 -5 -13 -3
-2 16 17 26 29 27 29 1z m710 -7 c0 -19 -3 -24 -10 -17 -6 6 -8 18 -4 27 9 24
14 21 14 -10z m100 13 c0 -8 -4 -18 -10 -21 -5 -3 -10 3 -10 14 0 12 5 21 10
21 6 0 10 -6 10 -14z m80 -26 c0 -5 -4 -10 -10 -10 -5 0 -10 5 -10 10 0 6 5
10 10 10 6 0 10 -4 10 -10z m-690 -27 c14 3 30 -2 46 -16 29 -25 31 -37 4 -37
-11 0 -20 6 -20 14 0 11 -9 13 -37 9 -21 -3 -43 -9 -48 -14 -7 -5 -9 6 -7 32
4 38 5 39 23 23 11 -10 27 -14 39 -11z m757 11 c-3 -3 -12 -4 -19 -1 -8 3 -5
6 6 6 11 1 17 -2 13 -5z m-1207 -14 c0 -5 -4 -10 -10 -10 -5 0 -10 5 -10 10 0
6 5 10 10 10 6 0 10 -4 10 -10z m300 -33 c0 -13 3 -27 8 -31 7 -7 8 -11 11
-37 0 -6 10 -8 21 -4 24 7 27 -10 4 -19 -19 -7 -34 1 -34 18 0 7 -11 23 -24
35 -21 20 -23 26 -13 42 16 26 27 24 27 -4z m340 -17 c0 -6 -11 -10 -25 -10
-14 0 -25 4 -25 9 0 5 -3 17 -6 26 -6 16 -5 16 25 1 17 -9 31 -21 31 -26z
m433 33 c-7 -2 -19 -2 -25 0 -7 3 -2 5 12 5 14 0 19 -2 13 -5z m52 -3 c-3 -5
-1 -10 4 -10 6 0 11 -5 11 -11 0 -8 -5 -8 -15 1 -17 14 -20 30 -4 30 5 0 7 -4
4 -10z m40 0 c3 -5 1 -10 -4 -10 -6 0 -11 5 -11 10 0 6 2 10 4 10 3 0 8 -4 11
-10z m-60 -29 c3 -5 1 -12 -5 -16 -5 -3 -10 1 -10 9 0 18 6 21 15 7z m-647
-29 c2 -7 -3 -12 -12 -12 -9 0 -16 7 -16 16 0 17 22 14 28 -4z m82 -2 c12 -8
12 -10 -5 -10 -18 0 -18 -2 5 -20 23 -19 24 -21 7 -34 -18 -14 -15 -39 10 -64
7 -7 13 -21 13 -30 0 -13 -6 -9 -25 12 -14 16 -25 35 -25 42 0 7 -9 18 -19 24
-26 13 -31 13 -31 -5 0 -8 -4 -15 -10 -15 -14 0 -13 13 3 29 10 10 8 14 -6 23
-18 9 -18 10 0 23 12 9 20 10 24 3 4 -6 12 -2 18 11 13 23 19 25 41 11z m359
-16 c8 -7 -30 -16 -44 -10 -27 10 -17 27 13 20 15 -4 29 -8 31 -10z m157 4 c4
-7 3 -8 -4 -4 -7 4 -12 1 -12 -9 0 -9 -5 -13 -10 -10 -8 5 -7 11 1 21 14 17
16 17 25 2z m-112 -13 c6 -17 -2 -45 -14 -45 -4 0 -10 14 -12 30 -5 32 15 43
26 15z m-755 -70 c6 -27 15 -52 19 -55 4 -3 13 -13 21 -22 12 -16 11 -18 -5
-18 -15 0 -24 16 -42 74 -24 79 -27 95 -14 81 4 -6 14 -32 21 -60z m177 14 c4
-23 3 -23 -11 -5 -18 24 -19 39 -3 34 6 -2 13 -15 14 -29z m274 -1 c0 -5 -4
-8 -10 -8 -5 0 -10 -19 -11 -42 l-1 -43 -15 47 c-20 57 -13 84 17 66 11 -7 20
-16 20 -20z m460 -28 c0 -5 -4 -10 -10 -10 -5 0 -10 5 -10 10 0 6 5 10 10 10
6 0 10 -4 10 -10z m-597 -20 c19 -22 23 -70 7 -70 -6 0 -10 6 -9 13 4 30 -2
47 -17 47 -8 0 -13 4 -9 9 3 5 -3 12 -12 14 -15 4 -15 5 2 6 11 0 28 -8 38
-19z m407 -27 c0 -7 -7 -13 -15 -13 -10 0 -15 10 -15 32 0 30 1 31 15 12 8
-10 15 -25 15 -31z m53 6 c-3 -10 -12 -19 -19 -19 -17 0 -18 14 -2 40 14 22
28 8 21 -21z m4308 -6 c7 -21 14 -45 15 -53 1 -8 7 -35 12 -60 30 -133 44
-212 47 -274 2 -37 9 -91 15 -120 36 -178 52 -297 56 -421 9 -300 11 -516 4
-520 -4 -3 -4 -23 0 -45 4 -22 3 -43 -1 -46 -15 -9 -10 -62 7 -78 8 -9 12 -16
7 -16 -4 0 -3 -4 3 -8 6 -4 14 -20 18 -35 6 -24 4 -28 -11 -25 -10 2 -19 9
-19 16 -1 6 -2 17 -3 22 0 6 -5 10 -11 10 -17 0 -11 -29 10 -50 23 -23 19 -40
-11 -40 -10 0 -19 -7 -19 -15 0 -8 -7 -15 -15 -15 -8 0 -15 7 -15 16 0 9 -9
18 -19 21 -12 3 -21 17 -25 39 -4 18 -14 37 -22 42 -15 9 -43 73 -44 103 0 9
-9 27 -19 41 -11 13 -31 69 -44 124 -14 54 -36 124 -50 154 -14 30 -35 101
-48 158 -23 106 -23 104 12 174 5 9 12 35 15 58 4 22 11 43 15 46 5 3 9 16 9
30 0 13 5 24 11 24 6 0 9 10 8 23 -1 12 3 35 10 51 6 16 14 50 17 75 3 25 8
53 11 61 3 8 5 27 4 43 -2 15 3 27 9 27 8 0 10 12 5 40 -4 26 -3 46 5 55 7 8
9 26 5 44 -4 18 -2 32 5 36 8 5 10 22 5 50 -3 27 -2 46 5 50 6 3 8 9 6 13 -9
15 -16 132 -8 132 5 0 8 18 7 40 -3 50 10 52 26 3z m-4865 14 c4 -4 0 -7 -9
-7 -9 0 -18 4 -21 9 -7 10 20 9 30 -2z m645 -16 c-8 -5 -10 -14 -6 -21 5 -8 3
-11 -5 -8 -23 7 -20 38 3 38 17 0 19 -2 8 -9z m-631 -5 c0 -3 -4 -8 -10 -11
-5 -3 -10 -1 -10 4 0 6 5 11 10 11 6 0 10 -2 10 -4z m-333 -28 c-3 -8 -6 -5
-6 6 -1 11 2 17 5 13 3 -3 4 -12 1 -19z m442 -52 c-9 -8 -10 -5 -5 14 3 14 7
34 7 45 1 11 4 5 6 -14 3 -19 -1 -39 -8 -45z m261 67 c0 -5 -5 -15 -10 -23 -8
-12 -10 -11 -10 8 0 12 5 22 10 22 6 0 10 -3 10 -7z m-540 -50 c0 -33 -16 -61
-27 -50 -4 5 -2 12 6 16 10 7 9 10 -3 14 -21 8 -20 34 2 40 9 3 18 5 20 6 1 0
2 -11 2 -26z m368 10 c-2 -10 -10 -18 -18 -18 -8 0 -16 8 -18 18 -2 12 3 17
18 17 15 0 20 -5 18 -17z m382 7 c0 -5 -4 -10 -10 -10 -5 0 -10 5 -10 10 0 6
5 10 10 10 6 0 10 -4 10 -10z m69 -33 c13 4 14 3 1 -5 -8 -6 -18 -8 -22 -6 -4
3 -5 -1 -2 -9 3 -8 1 -18 -4 -21 -5 -3 -12 5 -14 19 -6 28 1 40 15 26 5 -5 17
-7 26 -4z m-778 -56 c0 -20 3 -30 6 -23 3 8 10 5 23 -10 10 -12 15 -28 13 -35
-3 -7 0 -13 6 -13 6 0 11 -4 11 -10 0 -17 -24 -6 -35 15 -6 11 -20 20 -30 21
-11 1 -24 2 -30 4 -5 1 -14 2 -20 0 -5 -1 -4 4 3 11 15 16 16 43 1 33 -7 -4
-10 -1 -7 6 9 27 28 22 29 -7 1 -28 1 -28 8 -3 4 14 4 27 -1 28 -15 7 -8 32 7
26 9 -4 15 -20 16 -43z m321 22 c-6 -29 -19 -30 -25 0 -4 22 -4 22 -15 -3 -10
-23 -11 -23 -11 -4 -1 27 7 34 34 32 17 -2 20 -7 17 -25z m81 20 c-7 -2 -19
-2 -25 0 -7 3 -2 5 12 5 14 0 19 -2 13 -5z m247 -6 c0 -7 9 -18 20 -25 11 -7
20 -19 20 -27 0 -19 -9 -19 -32 1 -14 14 -20 14 -33 4 -9 -7 -19 -10 -23 -6
-4 4 3 15 16 24 18 14 20 20 10 30 -9 9 -8 12 5 12 9 0 17 -6 17 -13z m-303
-29 c-3 -8 -6 -5 -6 6 -1 11 2 17 5 13 3 -3 4 -12 1 -19z m87 -24 c5 -14 4
-15 -9 -4 -17 14 -19 20 -6 20 5 0 12 -7 15 -16z m156 6 c0 -5 -18 -10 -40
-10 -22 0 -40 5 -40 10 0 6 18 10 40 10 22 0 40 -4 40 -10z m-250 -10 c0 -5
-4 -10 -10 -10 -5 0 -10 5 -10 10 0 6 5 10 10 10 6 0 10 -4 10 -10z m382 -12
c-7 -7 -12 -8 -12 -2 0 14 12 26 19 19 2 -3 -1 -11 -7 -17z m-1226 -35 c-11
-11 -17 4 -9 23 7 18 8 18 11 1 2 -10 1 -21 -2 -24z m994 22 c0 -8 -4 -15 -10
-15 -5 0 -10 7 -10 15 0 8 5 15 10 15 6 0 10 -7 10 -15z m67 9 c-3 -3 -12 -4
-19 -1 -8 3 -5 6 6 6 11 1 17 -2 13 -5z m73 -4 c0 -5 -2 -10 -4 -10 -3 0 -8 5
-11 10 -3 6 -1 10 4 10 6 0 11 -4 11 -10z m-1090 -25 c0 -8 -4 -15 -10 -15 -5
0 -10 7 -10 15 0 8 5 15 10 15 6 0 10 -7 10 -15z m977 -17 c-3 -7 -5 -2 -5 12
0 14 2 19 5 13 2 -7 2 -19 0 -25z m303 0 c0 -16 -3 -19 -11 -11 -6 6 -8 16 -5
22 11 17 16 13 16 -11z m-470 -2 c0 -3 -4 -8 -10 -11 -5 -3 -10 -1 -10 4 0 6
5 11 10 11 6 0 10 -2 10 -4z m408 -60 c-3 -27 0 -31 20 -29 12 2 22 -2 22 -7
0 -6 -3 -10 -7 -11 -5 0 -19 -2 -33 -4 -35 -5 -60 4 -60 21 0 8 5 14 10 14 6
0 10 -7 10 -15 0 -8 6 -15 13 -15 17 0 16 52 0 63 -7 4 -13 17 -13 29 0 21 0
21 20 3 14 -13 20 -29 18 -49z m-1228 34 c-8 -5 -11 -22 -8 -44 2 -20 0 -36
-4 -36 -9 0 -11 61 -2 84 3 9 11 13 16 10 6 -4 6 -9 -2 -14z m461 -27 c-4 -38
-4 -38 -12 -10 -8 30 -2 60 10 53 4 -3 5 -22 2 -43z m794 37 c3 -5 1 -10 -4
-10 -6 0 -11 5 -11 10 0 6 2 10 4 10 3 0 8 -4 11 -10z m-920 -10 c-3 -5 -2
-10 4 -10 23 0 66 -122 105 -292 11 -48 -16 -32 -63 37 -24 36 -48 65 -52 65
-15 0 -29 61 -18 81 6 13 7 37 1 69 -5 27 -7 52 -4 55 10 9 33 5 27 -5z m695
0 c0 -5 -7 -7 -15 -4 -8 4 -15 8 -15 10 0 2 7 4 15 4 8 0 15 -4 15 -10z m-530
-32 c0 -5 -7 -8 -15 -8 -17 0 -18 2 -9 25 5 13 8 14 15 3 5 -7 9 -16 9 -20z
m-543 -30 c-2 -13 -4 -5 -4 17 -1 22 1 32 4 23 2 -10 2 -28 0 -40z m1352 17
c3 -17 1 -17 -12 -6 -9 7 -21 10 -27 6 -5 -3 -10 1 -10 10 0 24 44 15 49 -10z
m-782 -16 c-3 -11 -1 -19 4 -19 5 0 9 12 9 27 0 36 8 25 19 -28 6 -24 15 -64
21 -89 8 -33 8 -50 -1 -67 -7 -12 -9 -38 -6 -58 4 -22 2 -33 -4 -29 -5 3 -17
0 -26 -8 -14 -10 -15 -10 -9 0 5 8 2 18 -7 25 -8 7 -17 26 -20 42 -12 64 -19
91 -30 113 -9 18 -8 25 3 32 8 5 17 6 20 3 3 -3 -1 -8 -7 -10 -7 -3 -13 -9
-13 -14 0 -13 28 -11 32 3 2 6 10 8 17 4 7 -5 10 -14 7 -22 -3 -7 -1 -16 4
-19 11 -7 14 68 3 78 -3 4 -11 3 -17 -2 -7 -6 -16 -4 -24 5 -7 8 -8 14 -2 14
5 0 10 12 10 26 0 15 4 23 11 18 6 -3 9 -15 6 -25z m620 9 c-3 -8 -6 -5 -6 6
-1 11 2 17 5 13 3 -3 4 -12 1 -19z m213 6 c0 -8 -4 -12 -10 -9 -5 3 -10 10
-10 16 0 5 5 9 10 9 6 0 10 -7 10 -16z m-478 -18 c4 -17 1 -23 -9 -19 -14 5
-17 25 -6 36 9 10 10 9 15 -17z m-382 4 c0 -5 -7 -10 -16 -10 -8 0 -12 5 -9
10 3 6 10 10 16 10 5 0 9 -4 9 -10z m904 -5 c-4 -8 -11 -15 -16 -15 -6 0 -5 6
2 15 7 8 14 15 16 15 2 0 1 -7 -2 -15z m-580 -16 c-31 -12 -39 -10 -19 5 11 8
24 12 29 8 5 -3 1 -9 -10 -13z m1406 6 c0 -8 -4 -15 -10 -15 -5 0 -7 7 -4 15
4 8 8 15 10 15 2 0 4 -7 4 -15z m50 11 c0 -2 -7 -7 -16 -10 -8 -3 -12 -2 -9 4
6 10 25 14 25 6z m-1800 -31 c0 -8 -4 -15 -10 -15 -5 0 -10 7 -10 15 0 8 5 15
10 15 6 0 10 -7 10 -15z m503 -13 c-6 -24 -11 -26 -33 -12 -13 8 -12 10 3 10
10 0 20 7 24 15 8 23 13 13 6 -13z m-119 9 c4 -5 -1 -8 -9 -7 -21 3 -31 16
-12 16 9 0 18 -4 21 -9z m171 0 c3 -5 1 -12 -5 -16 -5 -3 -10 1 -10 9 0 18 6
21 15 7z m120 -11 c3 -5 1 -10 -4 -10 -6 0 -11 5 -11 10 0 6 2 10 4 10 3 0 8
-4 11 -10z m-235 -4 c0 -11 -19 -15 -25 -6 -3 5 1 10 9 10 9 0 16 -2 16 -4z
m498 -7 c-2 -6 -8 -10 -13 -10 -5 0 -11 4 -13 10 -2 6 4 11 13 11 9 0 15 -5
13 -11z m-118 -31 c0 -25 -3 -29 -10 -18 -13 20 -13 50 0 50 6 0 10 -15 10
-32z m330 -24 c0 -2 -8 4 -18 14 -10 9 -17 23 -14 30 3 8 10 3 18 -14 8 -14
14 -28 14 -30z m-1394 19 c-10 -10 -19 5 -10 18 6 11 8 11 12 0 2 -7 1 -15 -2
-18z m1000 5 c17 -19 17 -21 2 -15 -10 4 -18 3 -18 -2 0 -4 -11 -6 -24 -4 -17
4 -22 10 -19 24 7 25 35 24 59 -3z m-1186 2 c0 -5 7 -10 16 -10 10 0 14 -6 10
-15 -3 -8 2 -19 12 -24 14 -8 15 -12 5 -22 -15 -15 -29 -4 -35 26 -2 13 -12
21 -31 23 -28 3 -36 17 -14 25 21 9 37 7 37 -3z m1010 0 c0 -5 -5 -10 -11 -10
-5 0 -7 5 -4 10 3 6 8 10 11 10 2 0 4 -4 4 -10z m318 2 c9 -6 10 -16 4 -32 -6
-17 -11 -20 -17 -11 -4 8 -2 17 6 22 11 7 10 9 -3 9 -10 0 -18 5 -18 10 0 12
10 13 28 2z m195 1 c-7 -2 -19 -2 -25 0 -7 3 -2 5 12 5 14 0 19 -2 13 -5z
m-608 -19 c-9 -9 -19 -13 -23 -10 -3 4 0 11 8 16 24 15 33 11 15 -6z m-985 -4
c0 -5 -4 -10 -10 -10 -5 0 -10 5 -10 10 0 6 5 10 10 10 6 0 10 -4 10 -10z
m1128 -12 c16 -16 15 -28 -2 -28 -17 0 -38 24 -29 33 9 10 17 9 31 -5z m-178
-18 c0 -5 -4 -10 -10 -10 -5 0 -10 5 -10 10 0 6 5 10 10 10 6 0 10 -4 10 -10z
m765 0 c3 -5 2 -10 -4 -10 -5 0 -13 5 -16 10 -3 6 -2 10 4 10 5 0 13 -4 16
-10z m-670 -7 c-22 -3 -43 -10 -47 -16 -5 -8 -8 -8 -8 -1 0 19 12 24 54 22
l41 -1 -40 -4z m142 1 c-3 -3 -12 -4 -19 -1 -8 3 -5 6 6 6 11 1 17 -2 13 -5z
m109 -52 c-4 -3 -11 -1 -17 5 -8 8 -7 18 3 34 l13 24 3 -28 c2 -16 1 -31 -2
-35z m-1138 7 c-1 -16 -4 -29 -5 -29 -8 0 -23 53 -17 61 10 17 24 -2 22 -32z
m1448 30 c3 -6 1 -15 -5 -20 -6 -5 -9 -6 -6 -3 3 4 0 13 -6 21 -8 9 -8 13 -1
13 6 0 14 -5 18 -11z m148 -15 c3 -8 2 -12 -4 -9 -6 3 -10 10 -10 16 0 14 7
11 14 -7z m-1454 -14 c0 -5 8 -11 18 -13 10 -3 5 -5 -12 -6 -16 0 -26 2 -23 6
4 3 -1 12 -11 19 -15 12 -15 12 6 7 12 -3 22 -9 22 -13z m346 -3 c10 4 15 1
13 -8 -1 -8 0 -21 3 -29 23 -67 26 -83 21 -97 -5 -12 -2 -15 9 -11 12 5 14 0
10 -20 -5 -25 -5 -25 -13 -4 -5 12 -16 22 -25 22 -16 0 -16 1 0 19 16 18 16
20 -5 40 -13 12 -17 21 -11 21 7 0 12 4 12 9 0 5 -8 7 -19 4 -13 -3 -17 -11
-14 -24 4 -13 0 -19 -12 -19 -12 0 -15 5 -11 16 3 9 6 22 6 30 0 8 5 13 11 12
6 -2 14 3 17 11 3 8 0 11 -7 7 -7 -5 -11 1 -10 16 0 13 3 18 5 11 3 -7 12 -9
20 -6z m1099 -27 c3 -5 1 -10 -4 -10 -6 0 -11 5 -11 10 0 6 2 10 4 10 3 0 8
-4 11 -10z m-1431 -32 c5 -22 0 -38 -12 -38 -10 0 -29 44 -24 58 5 17 29 3 36
-20z m936 16 c0 -9 -5 -14 -12 -12 -18 6 -21 28 -4 28 9 0 16 -7 16 -16z m570
-4 c0 -5 -5 -10 -11 -10 -5 0 -7 5 -4 10 3 6 8 10 11 10 2 0 4 -4 4 -10z
m-1724 -48 c4 -13 4 -25 1 -28 -10 -10 -27 7 -27 26 0 34 -20 32 -21 -2 0 -18
-3 -26 -6 -18 -4 8 -16 22 -27 32 l-21 17 23 1 c12 0 22 4 22 9 0 18 51 -15
56 -37z m24 32 c0 -8 -5 -12 -10 -9 -6 4 -8 11 -5 16 9 14 15 11 15 -7z m55 6
c3 -5 1 -10 -4 -10 -6 0 -11 5 -11 10 0 6 2 10 4 10 3 0 8 -4 11 -10z m668
-30 c3 -13 14 -20 28 -20 12 0 20 -3 16 -6 -3 -3 7 -20 23 -37 16 -18 37 -46
47 -64 9 -17 24 -34 33 -36 14 -4 18 -23 11 -56 -1 -2 -8 2 -16 9 -8 6 -19 9
-24 6 -5 -4 -12 -2 -16 4 -3 5 -20 10 -36 10 -22 0 -32 6 -39 25 -9 22 -20 30
-42 26 -5 0 -8 14 -8 32 0 17 -5 50 -10 71 -5 22 -7 44 -4 48 10 15 32 8 37
-12z m217 8 c0 -4 -9 -8 -20 -8 -11 0 -20 4 -20 8 0 4 9 8 20 8 11 0 20 -4 20
-8z m60 -1 c0 -7 -9 -18 -20 -25 -23 -14 -25 -10 -8 18 14 23 28 26 28 7z
m-940 -6 c0 -5 -6 -11 -12 -14 -9 -3 -7 -9 7 -20 11 -8 17 -19 13 -23 -4 -4
-15 -1 -24 6 -12 11 -20 11 -35 2 -12 -8 -19 -8 -19 -2 0 6 7 13 15 16 8 3 17
14 20 25 6 19 35 27 35 10z m184 -6 c-4 -8 -11 -15 -16 -15 -6 0 -5 6 2 15 7
8 14 15 16 15 2 0 1 -7 -2 -15z m226 -11 c0 -14 -4 -23 -10 -19 -5 3 -10 15
-10 26 0 10 5 19 10 19 6 0 10 -12 10 -26z m567 -6 c-3 -8 -6 -5 -6 6 -1 11 2
17 5 13 3 -3 4 -12 1 -19z m93 2 c0 -11 -7 -20 -15 -20 -8 0 -15 9 -15 20 0
11 7 20 15 20 8 0 15 -9 15 -20z m-592 -8 c2 -7 -2 -10 -12 -6 -9 3 -16 11
-16 16 0 13 23 5 28 -10z m-280 -6 c-7 -8 -15 -12 -17 -11 -5 6 10 25 20 25 5
0 4 -6 -3 -14z m230 -5 c-2 -10 6 -29 17 -41 l20 -22 -25 3 c-20 3 -25 9 -24
29 3 43 4 50 10 50 3 0 4 -9 2 -19z m-195 -11 c-18 -20 -49 -29 -38 -10 4 6
11 8 16 5 5 -4 9 1 9 9 0 9 7 16 15 16 12 0 12 -3 -2 -20z m892 13 c-11 -3
-26 -10 -32 -15 -9 -7 -13 -7 -13 0 0 13 18 21 45 20 l20 0 -20 -5z m-992 -17
c4 -10 1 -13 -8 -9 -8 3 -12 9 -9 14 7 12 11 11 17 -5z m837 4 c0 -5 -7 -10
-16 -10 -8 0 -12 5 -9 10 3 6 10 10 16 10 5 0 9 -4 9 -10z m-705 -10 c3 -5 1
-10 -4 -10 -6 0 -11 5 -11 10 0 6 2 10 4 10 3 0 8 -4 11 -10z m130 0 c3 -5 1
-10 -4 -10 -6 0 -11 5 -11 10 0 6 2 10 4 10 3 0 8 -4 11 -10z m-508 -22 c-3
-8 -6 -5 -6 6 -1 11 2 17 5 13 3 -3 4 -12 1 -19z m297 6 c3 -8 2 -12 -4 -9 -6
3 -10 10 -10 16 0 14 7 11 14 -7z m-164 -4 c11 -7 7 -10 -17 -10 -17 0 -35 5
-38 10 -8 13 35 13 55 0z m880 0 c0 -5 -2 -10 -4 -10 -3 0 -8 5 -11 10 -3 6
-1 10 4 10 6 0 11 -4 11 -10z m-654 -11 c4 -8 9 -8 13 -1 4 7 12 8 21 2 13 -8
12 -10 -3 -10 -10 0 -15 -4 -12 -10 8 -13 -1 -13 -26 0 -20 11 -26 30 -10 30
6 0 13 -5 17 -11z m914 -9 c0 -5 -4 -10 -10 -10 -5 0 -10 5 -10 10 0 6 5 10
10 10 6 0 10 -4 10 -10z m-610 -10 c0 -5 -2 -10 -4 -10 -3 0 -8 5 -11 10 -3 6
-1 10 4 10 6 0 11 -4 11 -10z m-595 -10 c3 -5 1 -10 -4 -10 -6 0 -11 5 -11 10
0 6 2 10 4 10 3 0 8 -4 11 -10z m75 -10 c-19 -13 -30 -13 -30 0 0 6 10 10 23
10 18 0 19 -2 7 -10z m287 4 c-3 -3 -12 -4 -19 -1 -8 3 -5 6 6 6 11 1 17 -2
13 -5z m-137 -34 c-6 -11 -8 -31 -5 -43 5 -17 4 -19 -4 -7 -14 20 -14 48 2 64
17 19 21 12 7 -14z m-135 0 c3 -5 1 -10 -4 -10 -6 0 -11 5 -11 10 0 6 2 10 4
10 3 0 8 -4 11 -10z m235 6 c0 -3 -4 -8 -10 -11 -5 -3 -10 -1 -10 4 0 6 5 11
10 11 6 0 10 -2 10 -4z m180 0 c0 -11 -19 -15 -25 -6 -3 5 1 10 9 10 9 0 16
-2 16 -4z m1267 -2 c-3 -3 -12 -4 -19 -1 -8 3 -5 6 6 6 11 1 17 -2 13 -5z
m-430 -10 c-3 -3 -12 -4 -19 -1 -8 3 -5 6 6 6 11 1 17 -2 13 -5z m-985 -16
c12 -7 27 -17 33 -23 15 -14 26 -45 16 -45 -5 0 -11 10 -14 22 -5 18 -8 19
-22 8 -8 -7 -19 -10 -22 -6 -4 4 -1 11 7 17 12 7 11 10 -7 15 -13 4 -23 10
-23 15 0 12 6 11 32 -3z m198 1 c0 -5 -4 -7 -10 -4 -5 3 -10 -3 -10 -14 0 -11
-4 -22 -9 -26 -5 -3 -9 8 -9 25 1 22 6 30 20 30 10 0 18 -5 18 -11z m-450 -47
c5 -20 7 -38 5 -41 -3 -2 -5 1 -5 7 0 7 -5 12 -11 12 -6 0 -8 -9 -4 -21 5 -15
4 -19 -4 -15 -14 9 -14 39 1 54 9 9 7 16 -7 32 -16 18 -16 20 -2 14 9 -3 21
-22 27 -42z m400 44 c0 -3 -4 -8 -10 -11 -5 -3 -10 -1 -10 4 0 6 5 11 10 11 6
0 10 -2 10 -4z m660 -6 c0 -5 -4 -10 -10 -10 -5 0 -10 5 -10 10 0 6 5 10 10
10 6 0 10 -4 10 -10z m-586 -46 c6 -15 4 -15 -11 -3 -10 7 -20 15 -22 16 -2 2
3 3 11 3 9 0 19 -7 22 -16z m83 -6 c-3 -8 -6 -5 -6 6 -1 11 2 17 5 13 3 -3 4
-12 1 -19z m403 12 c0 -5 -5 -10 -11 -10 -5 0 -7 5 -4 10 3 6 8 10 11 10 2 0
4 -4 4 -10z m-780 -25 c0 -8 -7 -15 -15 -15 -16 0 -20 12 -8 23 11 12 23 8 23
-8z m266 -6 c3 -6 1 -16 -5 -22 -9 -9 -11 -8 -6 5 4 11 0 18 -12 21 -15 4 -16
5 -1 6 9 0 20 -4 24 -10z m269 1 c3 -5 1 -10 -4 -10 -6 0 -11 5 -11 10 0 6 2
10 4 10 3 0 8 -4 11 -10z m275 0 c0 -5 -2 -10 -4 -10 -3 0 -8 5 -11 10 -3 6
-1 10 4 10 6 0 11 -4 11 -10z m140 -30 c0 -13 -1 -13 -10 0 -5 8 -10 22 -10
30 0 13 1 13 10 0 5 -8 10 -22 10 -30z m-831 -7 c-1 -34 -2 -35 -9 -13 -11 36
-11 50 0 50 6 0 10 -17 9 -37z m234 7 c3 -11 1 -18 -4 -14 -5 3 -9 12 -9 20 0
20 7 17 13 -6z m27 10 c0 -5 -4 -10 -10 -10 -5 0 -10 5 -10 10 0 6 5 10 10 10
6 0 10 -4 10 -10z m185 0 c3 -5 1 -10 -4 -10 -6 0 -11 5 -11 10 0 6 2 10 4 10
3 0 8 -4 11 -10z m-760 -28 c-3 -3 -11 0 -18 7 -9 10 -8 11 6 5 10 -3 15 -9
12 -12z m825 -33 c0 -11 -4 -17 -10 -14 -5 3 -10 13 -10 21 0 8 5 14 10 14 6
0 10 -9 10 -21z m-813 -11 c-3 -8 -6 -5 -6 6 -1 11 2 17 5 13 3 -3 4 -12 1
-19z m335 -8 c3 -19 0 -30 -7 -30 -7 0 -10 11 -7 30 2 17 5 30 7 30 2 0 5 -13
7 -30z m436 5 c-3 -3 -9 2 -12 12 -6 14 -5 15 5 6 7 -7 10 -15 7 -18z m76 14
c-3 -6 0 -15 7 -20 11 -7 10 -9 -3 -9 -11 0 -18 8 -18 20 0 11 5 20 11 20 5 0
7 -5 3 -11z m-307 -31 c-3 -7 -5 -2 -5 12 0 14 2 19 5 13 2 -7 2 -19 0 -25z
m212 -18 c0 -10 -3 -8 -9 5 -12 27 -12 43 0 25 5 -8 9 -22 9 -30z m-639 4 c0
-8 -4 -12 -10 -9 -5 3 -10 13 -10 21 0 8 5 12 10 9 6 -3 10 -13 10 -21z m494
10 c3 -8 2 -12 -4 -9 -6 3 -10 10 -10 16 0 14 7 11 14 -7z m-464 -8 c0 -3 -4
-8 -10 -11 -5 -3 -10 -1 -10 4 0 6 5 11 10 11 6 0 10 -2 10 -4z m690 -28 c0
-5 -4 -8 -10 -8 -5 0 -10 10 -10 23 0 18 2 19 10 7 5 -8 10 -18 10 -22z m-860
18 c0 -3 -4 -8 -10 -11 -5 -3 -10 -1 -10 4 0 6 5 11 10 11 6 0 10 -2 10 -4z
m906 -7 c7 -11 -13 -29 -31 -28 -5 0 -4 3 3 6 10 4 10 8 1 19 -9 11 -8 14 4
14 9 0 19 -5 23 -11z m-756 -44 c0 -5 -5 -3 -10 5 -5 8 -10 20 -10 25 0 6 5 3
10 -5 5 -8 10 -19 10 -25z m500 16 c0 -10 -6 -21 -14 -24 -11 -4 -11 -1 -2 19
13 29 16 30 16 5z m203 -51 c3 -11 1 -18 -4 -14 -5 3 -9 12 -9 20 0 20 7 17
13 -6z m324 4 c-3 -3 -12 -4 -19 -1 -8 3 -5 6 6 6 11 1 17 -2 13 -5z m-775
-46 c-6 -6 -7 0 -4 19 5 21 7 23 10 9 2 -10 0 -22 -6 -28z m-392 2 c0 -5 -5
-10 -11 -10 -5 0 -7 5 -4 10 3 6 8 10 11 10 2 0 4 -4 4 -10z m1031 -17 c13
-16 12 -17 -3 -4 -10 7 -18 15 -18 17 0 8 8 3 21 -13z m-166 -11 c-3 -3 -11 0
-18 7 -9 10 -8 11 6 5 10 -3 15 -9 12 -12z m405 -12 c0 -5 -2 -10 -4 -10 -3 0
-8 5 -11 10 -3 6 -1 10 4 10 6 0 11 -4 11 -10z m-530 -20 c0 -5 -2 -10 -4 -10
-3 0 -8 5 -11 10 -3 6 -1 10 4 10 6 0 11 -4 11 -10z m-811 -54 c7 -8 8 -17 3
-20 -6 -3 -12 3 -15 14 -6 24 -4 25 12 6z m4181 3 c0 6 4 11 8 11 14 0 30 -88
18 -100 -7 -7 -7 -10 1 -10 6 0 13 -12 16 -27 9 -47 26 -127 32 -150 3 -13 2
-23 -3 -23 -4 0 -16 30 -26 67 -10 37 -26 73 -36 80 -19 13 -40 83 -40 134 0
27 2 30 15 19 10 -9 15 -9 15 -1z m-4120 -34 c0 -8 -2 -15 -4 -15 -2 0 -6 7
-10 15 -3 8 -1 15 4 15 6 0 10 -7 10 -15z m-40 -15 c0 -5 -4 -10 -10 -10 -5 0
-10 5 -10 10 0 6 5 10 10 10 6 0 10 -4 10 -10z m194 -16 c3 -8 2 -12 -4 -9 -6
3 -10 10 -10 16 0 14 7 11 14 -7z m973 1 c0 -8 -4 -12 -9 -9 -5 3 -6 10 -3 15
9 13 12 11 12 -6z m63 11 c0 -3 -4 -8 -10 -11 -5 -3 -10 -1 -10 4 0 6 5 11 10
11 6 0 10 -2 10 -4z m950 -34 c0 -4 10 -8 22 -9 11 -1 24 -6 27 -10 3 -4 11
-8 16 -9 30 -2 75 -18 75 -25 0 -5 16 -9 35 -9 19 0 35 -3 35 -7 0 -13 49 -31
69 -26 10 3 21 -2 24 -10 3 -9 14 -13 30 -10 14 3 28 0 31 -6 4 -6 20 -8 36
-4 23 4 30 2 30 -10 0 -10 6 -13 18 -10 10 2 30 -1 46 -6 26 -11 27 -14 21
-54 -4 -23 -11 -46 -16 -52 -5 -5 -9 -19 -9 -30 0 -12 -3 -25 -7 -29 -5 -4 -9
-12 -9 -17 -1 -5 -2 -10 -4 -11 -1 -2 -4 -16 -6 -33 -3 -16 -10 -32 -15 -36
-6 -3 -9 -19 -7 -35 3 -26 0 -29 -22 -26 -14 1 -32 11 -42 22 -9 11 -21 20
-27 20 -6 0 -11 5 -11 10 0 6 -7 10 -15 10 -8 0 -15 7 -15 15 0 8 -5 15 -11
15 -13 0 -69 55 -69 67 0 5 -16 23 -35 39 -19 16 -35 33 -35 38 0 4 -20 28
-45 53 -25 24 -45 45 -45 47 0 9 -60 67 -60 60 -1 -5 -7 6 -15 24 -8 17 -19
32 -25 32 -5 0 -10 7 -10 15 0 8 9 15 20 15 11 0 20 -4 20 -8z m-915 -22 c3
-5 1 -10 -4 -10 -6 0 -11 5 -11 10 0 6 2 10 4 10 3 0 8 -4 11 -10z m-85 -41
c0 -5 -4 -9 -10 -9 -5 0 -10 7 -10 16 0 8 5 12 10 9 6 -3 10 -10 10 -16z
m2860 -34 c-11 -13 -10 -14 2 -10 28 11 35 -18 16 -70 l-18 -50 5 43 c4 33 2
42 -7 37 -7 -4 -4 1 7 11 16 13 17 16 3 11 -10 -3 -20 -2 -23 3 -7 11 14 54
22 46 3 -3 0 -12 -7 -21z m-2655 -14 c3 -10 15 -21 25 -24 11 -3 20 -12 20
-21 0 -9 6 -16 14 -16 8 0 18 -9 21 -20 3 -11 10 -20 15 -20 12 0 60 -48 60
-60 0 -6 7 -10 15 -10 9 0 20 -12 25 -26 6 -14 15 -22 21 -19 6 4 13 -2 16
-13 3 -12 11 -18 19 -15 8 3 16 -5 20 -21 3 -14 13 -26 21 -26 17 0 35 -17 52
-48 6 -12 18 -22 26 -22 8 0 15 -4 15 -10 0 -5 7 -10 15 -10 8 0 17 -11 21
-25 4 -15 13 -25 24 -25 11 0 20 -10 24 -25 4 -14 10 -24 15 -22 5 1 24 -14
43 -34 18 -19 45 -43 59 -53 32 -20 44 -55 22 -63 -8 -3 -19 0 -23 7 -5 8 -18
10 -39 5 -20 -4 -37 -2 -46 5 -8 6 -23 9 -35 5 -12 -4 -27 -2 -34 4 -8 7 -27
12 -42 12 -68 0 -104 5 -104 12 0 4 -13 7 -29 7 -17 0 -33 5 -36 10 -3 6 -17
10 -31 10 -33 0 -133 46 -140 64 -3 8 -12 12 -20 9 -8 -3 -14 1 -14 11 0 9 -6
16 -14 16 -23 0 -34 58 -32 170 2 58 -2 138 -7 179 -4 41 -6 84 -3 97 8 29 32
32 41 5z m2701 -67 c-3 -9 -3 -21 1 -27 4 -7 9 -23 11 -36 2 -14 7 -32 12 -41
5 -9 5 -22 -1 -31 -7 -11 -9 -9 -9 8 0 12 -5 25 -10 28 -6 4 -8 15 -5 26 7 21
-10 27 -18 7 -3 -7 -4 3 -2 22 4 57 4 60 16 60 6 0 8 -7 5 -16z m-4059 -40
c-3 -3 -12 -4 -19 -1 -8 3 -5 6 6 6 11 1 17 -2 13 -5z m1281 -199 c18 -56 0
-69 -38 -26 -35 37 -37 46 -12 60 26 15 36 9 50 -34z m1787 -121 c11 -14 30
-37 42 -50 13 -14 26 -36 29 -49 3 -14 12 -25 19 -25 7 0 18 -13 24 -30 5 -16
15 -30 22 -30 7 0 9 -3 6 -7 -4 -3 -2 -12 3 -18 8 -9 6 -14 -5 -19 -21 -8
-105 4 -105 15 0 5 -9 9 -20 9 -11 0 -28 4 -38 9 -9 5 -43 17 -74 26 -32 10
-58 21 -58 24 0 9 -51 31 -72 31 -10 0 -18 4 -18 9 0 5 -9 13 -20 16 -11 3
-20 11 -20 17 0 6 3 8 7 5 3 -4 11 -3 17 2 6 5 37 17 68 26 32 9 61 22 65 29
8 12 63 33 93 35 8 0 24 -11 35 -25z m-415 -61 c0 -10 -4 -14 -8 -8 -4 6 -11
13 -16 18 -5 4 -2 7 7 7 10 0 17 -8 17 -17z m20 -72 c0 -6 -4 -13 -10 -16 -5
-3 -10 1 -10 9 0 9 5 16 10 16 6 0 10 -4 10 -9z m62 -20 c21 -7 40 -16 43 -21
3 -5 12 -7 20 -3 9 3 15 -1 15 -10 0 -11 14 -18 45 -23 25 -3 45 -9 45 -13 0
-4 23 -14 50 -21 28 -7 50 -18 50 -23 0 -5 11 -7 25 -5 14 3 28 1 31 -3 3 -5
18 -9 35 -9 16 0 29 -3 29 -7 0 -5 35 -9 77 -10 43 -2 79 -7 81 -13 2 -5 10
-10 18 -10 8 0 14 -6 14 -14 0 -8 6 -21 13 -28 7 -7 22 -26 32 -43 11 -16 25
-34 32 -38 7 -4 13 -14 13 -21 0 -7 11 -26 25 -42 34 -38 38 -44 61 -79 10
-17 24 -34 31 -40 32 -25 31 -123 -1 -146 -9 -7 -106 38 -117 55 -4 5 -11 6
-17 2 -5 -3 -13 1 -16 10 -4 9 -13 14 -21 10 -9 -3 -15 0 -15 7 0 7 -16 19
-35 27 -19 8 -35 17 -35 22 0 4 -7 8 -15 8 -8 0 -15 5 -15 10 0 6 -9 10 -21
10 -11 0 -17 4 -14 10 3 5 -1 10 -9 10 -9 0 -25 8 -35 17 -56 52 -82 73 -91
73 -6 0 -10 5 -10 10 0 6 -9 10 -20 10 -11 0 -20 7 -20 15 0 8 -7 15 -15 15
-8 0 -19 9 -25 20 -6 11 -16 20 -22 20 -6 0 -21 11 -34 25 -13 14 -26 25 -29
25 -3 0 -22 17 -43 38 -21 20 -57 53 -80 72 -23 19 -42 41 -42 48 0 7 -5 10
-11 6 -6 -3 -15 0 -20 7 -10 17 -12 79 -1 63 4 -6 24 -17 44 -23z m-1142 -17
c23 4 30 2 30 -9 0 -11 7 -14 25 -9 14 3 31 1 38 -4 7 -6 30 -9 51 -6 21 2 35
0 32 -5 -6 -9 20 -12 112 -13 23 -1 42 -5 42 -10 0 -6 17 -7 40 -3 26 4 46 3
55 -5 8 -6 19 -9 24 -6 5 4 14 -2 20 -11 6 -10 11 -14 11 -9 0 4 14 -6 32 -22
17 -17 35 -29 40 -26 4 3 8 -2 8 -10 0 -8 9 -18 20 -21 11 -3 20 -13 20 -21 0
-8 9 -14 20 -14 11 0 20 -4 20 -8 0 -5 16 -16 35 -25 19 -9 35 -21 35 -27 0
-5 7 -10 15 -10 8 0 15 -4 15 -10 0 -5 6 -10 13 -10 8 0 19 -10 26 -22 7 -13
34 -33 62 -46 27 -12 49 -26 49 -30 0 -5 15 -14 34 -22 37 -14 52 -43 32 -59
-24 -20 -128 -42 -142 -30 -8 6 -20 9 -29 6 -8 -4 -17 -2 -20 3 -4 6 -16 10
-28 10 -13 0 -40 9 -62 20 -22 11 -47 20 -57 20 -10 0 -18 4 -18 9 0 5 -8 11
-17 14 -30 10 -117 64 -121 75 -2 6 -9 9 -16 6 -8 -3 -16 1 -19 9 -3 9 -19 18
-35 22 -17 3 -33 13 -36 20 -3 8 -12 12 -21 9 -8 -3 -15 -1 -15 5 0 6 -6 11
-14 11 -8 0 -16 6 -19 13 -2 7 -27 24 -53 37 -27 14 -50 28 -52 33 -2 4 -10 7
-18 7 -8 0 -14 4 -14 8 0 10 -56 43 -62 36 -3 -3 -8 7 -12 21 -4 14 -13 25
-21 25 -8 0 -15 5 -15 10 0 6 -7 10 -15 10 -7 0 -18 6 -22 13 -4 6 -20 18 -35
26 -16 8 -28 21 -28 29 0 12 3 12 15 2 9 -7 27 -10 45 -6z m-739 -617 c-13
-13 -26 -3 -16 12 3 6 11 8 17 5 6 -4 6 -10 -1 -17z m3789 3 c0 -5 -5 -10 -11
-10 -5 0 -7 5 -4 10 3 6 8 10 11 10 2 0 4 -4 4 -10z m405 -54 c6 -6 22 -17 38
-25 15 -8 27 -18 27 -23 0 -5 5 -6 10 -3 6 3 10 1 10 -5 0 -6 13 -16 30 -21
16 -6 32 -20 36 -31 6 -21 -6 -41 -13 -20 -3 6 -11 12 -19 12 -8 0 -14 4 -14
8 0 5 -16 14 -35 22 -19 8 -35 16 -35 19 0 4 -14 12 -32 20 -34 15 -74 51 -57
51 5 0 7 5 3 11 -9 15 37 1 51 -15z m-365 4 c0 -5 -2 -10 -4 -10 -3 0 -8 5
-11 10 -3 6 -1 10 4 10 6 0 11 -4 11 -10z m75 -70 c3 -6 -1 -7 -9 -4 -18 7
-21 14 -7 14 6 0 13 -4 16 -10z m502 -60 c13 0 13 -3 3 -15 -11 -13 -40 -21
-40 -11 0 2 -3 12 -7 22 -5 14 -3 16 11 11 10 -4 25 -7 33 -7z"/>
<path d="M2390 3810 c0 -5 9 -10 20 -10 11 0 20 5 20 10 0 6 -9 10 -20 10 -11
0 -20 -4 -20 -10z"/>
<path d="M4631 3398 c2 -7 -3 -31 -9 -52 -18 -62 -2 -72 47 -29 36 32 39 43
11 43 -13 0 -22 9 -26 25 -6 25 -27 36 -23 13z"/>
<path d="M4303 3248 c-21 -44 -23 -58 -8 -58 8 0 15 9 15 19 0 11 5 23 10 26
12 7 13 35 2 35 -5 0 -13 -10 -19 -22z"/>
<path d="M4261 3134 c-7 -19 -11 -38 -8 -41 6 -6 30 35 34 60 5 31 -13 18 -26
-19z"/>
<path d="M3917 3004 c-13 -14 -7 -29 16 -39 12 -6 21 -16 20 -23 -3 -14 13
-16 21 -3 8 12 -4 41 -16 41 -6 0 -16 7 -22 16 -6 8 -15 12 -19 8z"/>
<path d="M2630 2405 c0 -14 4 -25 9 -25 4 0 6 11 3 25 -2 14 -6 25 -8 25 -2 0
-4 -11 -4 -25z"/>
<path d="M2830 2409 c0 -5 5 -7 10 -4 6 3 10 8 10 11 0 2 -4 4 -10 4 -5 0 -10
-5 -10 -11z"/>
<path d="M2806 2385 c-3 -8 -1 -15 4 -15 6 0 10 7 10 15 0 8 -2 15 -4 15 -2 0
-6 -7 -10 -15z"/>
<path d="M2610 2343 c0 -29 15 -61 24 -52 8 8 -6 79 -15 79 -5 0 -9 -12 -9
-27z"/>
<path d="M2790 2351 c0 -6 4 -13 10 -16 6 -3 7 1 4 9 -7 18 -14 21 -14 7z"/>
<path d="M2740 2300 c0 -5 5 -10 10 -10 6 0 10 5 10 10 0 6 -4 10 -10 10 -5 0
-10 -4 -10 -10z"/>
<path d="M2600 2257 c0 -31 9 -57 21 -57 12 0 3 74 -10 78 -6 2 -11 -7 -11
-21z"/>
<path d="M2725 2270 c-3 -5 -1 -10 4 -10 6 0 11 5 11 10 0 6 -2 10 -4 10 -3 0
-8 -4 -11 -10z"/>
<path d="M3910 2241 c0 -5 -10 -11 -22 -15 -17 -4 -20 -8 -11 -17 16 -16 43
-4 43 21 0 11 -2 20 -5 20 -3 0 -5 -4 -5 -9z"/>
<path d="M2597 2177 c-7 -18 3 -67 14 -67 5 0 9 18 9 40 0 39 -13 54 -23 27z"/>
<path d="M3850 2180 c0 -5 7 -10 15 -10 8 0 15 5 15 10 0 6 -7 10 -15 10 -8 0
-15 -4 -15 -10z"/>
<path d="M2243 2133 c5 -42 27 -58 27 -20 0 32 -9 57 -21 57 -5 0 -8 -17 -6
-37z"/>
<path d="M3640 2111 c-43 -9 -62 -19 -55 -31 6 -10 103 14 118 29 12 12 -7 13
-63 2z"/>
<path d="M2432 2089 c2 -7 10 -15 17 -17 8 -3 12 1 9 9 -2 7 -10 15 -17 17 -8
3 -12 -1 -9 -9z"/>
<path d="M2420 2035 c0 -14 5 -25 10 -25 6 0 10 11 10 25 0 14 -4 25 -10 25
-5 0 -10 -11 -10 -25z"/>
<path d="M2400 1985 c0 -8 5 -15 10 -15 6 0 10 7 10 15 0 8 -4 15 -10 15 -5 0
-10 -7 -10 -15z"/>
<path d="M2380 1935 c0 -14 -4 -25 -10 -25 -5 0 -10 -7 -10 -15 0 -8 5 -15 10
-15 6 0 10 7 10 15 0 8 5 15 10 15 6 0 10 11 10 25 0 14 -4 25 -10 25 -5 0
-10 -11 -10 -25z"/>
<path d="M311 3575 c1 -19 18 -51 18 -35 0 8 -4 22 -9 30 -5 8 -9 11 -9 5z"/>
<path d="M561 2454 c0 -11 3 -14 6 -6 3 7 2 16 -1 19 -3 4 -6 -2 -5 -13z"/>
<path d="M573 2415 c-3 -10 -1 -20 5 -24 6 -3 14 -19 17 -34 5 -19 11 -25 18
-18 7 7 5 18 -7 36 -9 14 -14 30 -11 35 3 5 1 11 -5 15 -6 3 -13 -1 -17 -10z"/>
<path d="M610 2420 c0 -5 7 -10 15 -10 8 0 15 5 15 10 0 6 -7 10 -15 10 -8 0
-15 -4 -15 -10z"/>
<path d="M325 2320 c3 -5 8 -10 11 -10 2 0 4 5 4 10 0 6 -5 10 -11 10 -5 0 -7
-4 -4 -10z"/>
<path d="M2702 6074 c-7 -8 -8 -14 -3 -14 10 0 25 19 20 25 -2 1 -10 -3 -17
-11z"/>
<path d="M2400 6025 c0 -15 4 -24 10 -20 6 3 10 12 10 20 0 8 -4 17 -10 20 -6
4 -10 -5 -10 -20z"/>
<path d="M2402 5981 c2 -7 7 -12 11 -12 12 1 9 15 -3 20 -7 2 -11 -2 -8 -8z"/>
<path d="M4551 5944 c0 -11 3 -14 6 -6 3 7 2 16 -1 19 -3 4 -6 -2 -5 -13z"/>
<path d="M4582 5948 c-19 -19 -14 -30 7 -18 11 5 29 10 40 10 11 0 23 5 26 10
9 14 -58 13 -73 -2z"/>
<path d="M3240 5930 c0 -11 4 -20 9 -20 5 0 7 9 4 20 -3 11 -7 20 -9 20 -2 0
-4 -9 -4 -20z"/>
<path d="M3715 5780 c-3 -5 -2 -10 4 -10 5 0 13 5 16 10 3 6 2 10 -4 10 -5 0
-13 -4 -16 -10z"/>
<path d="M3670 5765 c-8 -9 -8 -15 -2 -15 12 0 26 19 19 26 -2 2 -10 -2 -17
-11z"/>
<path d="M2758 5737 c-21 -6 -38 -17 -38 -25 0 -11 7 -12 28 -7 15 4 34 8 42
9 15 2 20 8 20 26 0 11 -1 11 -52 -3z"/>
<path d="M3844 5676 c-3 -9 -3 -27 0 -41 4 -14 6 -27 5 -30 0 -4 7 -18 17 -33
10 -15 36 -63 57 -107 22 -44 46 -86 54 -93 7 -7 13 -24 13 -37 0 -13 6 -30
13 -37 28 -31 47 -79 47 -122 0 -25 5 -46 10 -46 6 0 10 8 11 18 0 14 2 14 9
-3 8 -19 9 -19 9 2 1 12 6 25 11 28 15 9 12 25 -6 25 -8 0 -12 5 -9 10 4 6 2
16 -3 23 -5 7 -12 25 -16 42 -4 16 -11 32 -16 35 -4 3 -11 23 -15 45 -5 29 -4
37 4 30 6 -6 12 -22 14 -35 2 -14 8 -25 13 -25 19 0 33 -16 39 -46 5 -20 11
-29 21 -25 9 3 16 -4 20 -20 4 -14 19 -40 35 -57 16 -17 29 -35 29 -39 0 -5 6
-8 14 -8 8 0 18 -9 21 -20 3 -11 11 -20 16 -20 12 0 12 17 -1 22 -8 2 -16 29
-19 61 -1 5 -5 5 -11 2 -9 -6 -14 8 -11 28 0 4 -3 7 -9 7 -5 0 -10 7 -10 16 0
9 -11 29 -25 46 -14 16 -25 36 -25 44 0 8 -7 14 -15 14 -8 0 -15 9 -15 19 0
11 -11 28 -25 39 -14 11 -25 29 -25 41 0 11 -9 25 -19 31 -11 5 -23 20 -26 32
-7 21 -25 44 -76 96 -15 15 -29 34 -32 42 -4 12 -6 11 -6 -2 -1 -10 -8 -18
-16 -18 -18 0 -19 14 -3 43 10 20 10 21 -5 9 -9 -8 -21 -11 -28 -7 -8 6 -8 9
1 15 9 5 9 9 1 14 -6 4 -14 0 -17 -8z"/>
<path d="M3815 5671 c-3 -5 -1 -12 5 -16 5 -3 10 1 10 9 0 18 -6 21 -15 7z"/>
<path d="M4235 5600 c-3 -5 -1 -10 4 -10 6 0 11 5 11 10 0 6 -2 10 -4 10 -3 0
-8 -4 -11 -10z"/>
<path d="M4640 5542 c0 -4 9 -13 20 -20 22 -13 27 -3 8 16 -14 14 -28 16 -28
4z"/>
<path d="M3636 5525 c-3 -8 -1 -15 4 -15 6 0 10 7 10 15 0 8 -2 15 -4 15 -2 0
-6 -7 -10 -15z"/>
<path d="M4707 5278 c-17 -18 -16 -38 3 -38 7 0 24 50 18 55 -2 1 -11 -7 -21
-17z"/>
<path d="M4640 5230 c0 -19 3 -21 12 -12 9 9 9 15 0 24 -9 9 -12 7 -12 -12z"/>
<path d="M4697 5213 c-12 -11 -8 -23 8 -23 8 0 15 7 15 15 0 16 -12 20 -23 8z"/>
<path d="M4740 5206 c0 -9 5 -16 10 -16 6 0 10 4 10 9 0 6 -4 13 -10 16 -5 3
-10 -1 -10 -9z"/>
<path d="M4107 5130 c-5 -20 9 -38 20 -26 4 3 2 6 -4 6 -6 0 -9 9 -6 20 3 11
3 20 0 20 -2 0 -7 -9 -10 -20z"/>
<path d="M4722 4968 c-6 -6 -12 -19 -12 -27 0 -13 2 -13 16 1 9 9 15 21 13 27
-3 9 -8 8 -17 -1z"/>
<path d="M4770 4934 c0 -9 5 -14 12 -12 18 6 21 28 4 28 -9 0 -16 -7 -16 -16z"/>
<path d="M3960 4880 c0 -11 4 -20 9 -20 5 0 7 9 4 20 -3 11 -7 20 -9 20 -2 0
-4 -9 -4 -20z"/>
<path d="M3815 4850 c3 -5 8 -10 11 -10 2 0 4 5 4 10 0 6 -5 10 -11 10 -5 0
-7 -4 -4 -10z"/>
<path d="M3787 4833 c-9 -15 15 -73 30 -73 11 0 11 -4 1 -21 -11 -18 -10 -23
11 -40 22 -18 47 -17 36 1 -7 12 41 36 88 45 30 6 37 4 37 -9 0 -9 4 -16 9
-16 5 0 7 9 4 20 -7 26 -41 34 -87 22 -24 -7 -47 -7 -71 1 -38 11 -49 32 -12
23 12 -3 17 -3 10 0 -7 3 -9 12 -6 21 4 11 2 14 -8 11 -8 -3 -19 2 -25 10 -7
9 -13 11 -17 5z"/>
<path d="M2 3584 c-3 -66 -1 -74 15 -74 45 0 52 78 12 121 l-24 26 -3 -73z
m30 -20 c-3 -24 -8 -32 -14 -26 -11 11 -3 62 10 62 4 0 6 -16 4 -36z"/>
<path d="M0 3463 c0 -23 5 -33 15 -33 19 0 19 21 0 46 -14 18 -14 17 -15 -13z"/>
<path d="M154 3166 c-3 -9 -4 -21 -1 -28 3 -7 6 -2 7 12 1 25 1 25 10 3 10
-26 30 -31 30 -8 0 8 -9 19 -20 25 -16 9 -22 8 -26 -4z"/>
<path d="M95 3160 c-7 -12 2 -30 16 -30 5 0 9 9 9 20 0 21 -15 27 -25 10z"/>
<path d="M45 3090 c-4 -6 4 -19 17 -29 30 -25 20 -34 -16 -16 -28 15 -46 12
-46 -6 0 -6 10 -8 23 -4 12 3 17 3 11 -2 -6 -4 -16 -18 -23 -30 -14 -28 -15
-97 -1 -88 6 4 8 16 5 27 -5 14 -1 21 15 25 17 5 20 11 15 34 -5 23 -3 29 9
29 12 0 15 -6 10 -25 -4 -15 -2 -25 5 -25 6 0 11 11 11 25 0 22 4 25 34 25 34
0 35 -1 38 -42 2 -23 8 -43 16 -44 7 -1 8 0 2 3 -17 8 -13 83 5 83 8 0 15 6
15 13 0 17 -29 56 -30 40 0 -9 -17 -13 -51 -13 -45 0 -50 2 -39 15 10 12 10
15 -3 15 -9 0 -19 -5 -22 -10z"/>
<path d="M182 2990 c0 -19 2 -27 5 -17 2 9 2 25 0 35 -3 9 -5 1 -5 -18z"/>
<path d="M88 2980 c-7 -16 -18 -30 -24 -30 -7 0 -15 -7 -18 -16 -9 -23 -8 -25
12 -23 9 1 32 1 50 0 29 -1 32 -4 32 -30 0 -38 10 -43 34 -20 17 17 18 19 3
19 -9 0 -17 7 -17 15 0 8 -4 15 -10 15 -5 0 -10 9 -10 20 0 11 -4 20 -10 20
-5 0 -10 14 -10 30 0 17 -4 30 -9 30 -5 0 -15 -13 -23 -30z"/>
<path d="M210 2895 c0 -8 7 -15 15 -15 8 0 15 7 15 15 0 8 -7 15 -15 15 -8 0
-15 -7 -15 -15z"/>
<path d="M40 2880 c0 -5 5 -10 10 -10 6 0 10 5 10 10 0 6 -4 10 -10 10 -5 0
-10 -4 -10 -10z"/>
<path d="M250 2868 c0 -18 -2 -20 -10 -8 -6 10 -8 1 -5 -29 2 -24 7 -46 11
-50 4 -3 4 6 0 21 -3 14 -2 28 2 30 13 5 24 58 12 58 -5 0 -10 -10 -10 -22z"/>
<path d="M266 2839 c-9 -44 -7 -56 4 -39 9 13 11 13 20 0 8 -13 10 -12 10 3 0
9 -4 17 -9 17 -4 0 -6 11 -3 25 2 14 0 25 -6 25 -5 0 -12 -14 -16 -31z"/>
<path d="M160 2822 c0 -10 22 -32 32 -32 4 0 8 9 8 20 0 13 -7 20 -20 20 -11
0 -20 -4 -20 -8z"/>
<path d="M249 2768 c-8 -28 -7 -48 4 -48 8 0 7 -4 -3 -10 -12 -8 -10 -10 9
-10 19 0 22 4 17 23 -3 12 -6 28 -6 35 0 10 -18 18 -21 10z"/>
<path d="M240 2660 c0 -11 4 -20 8 -20 4 0 8 9 8 20 0 11 -4 20 -8 20 -4 0 -8
-9 -8 -20z"/>
<path d="M6140 2338 c-4 -118 -16 -240 -36 -378 -9 -58 -16 -117 -15 -132 0
-16 -3 -28 -8 -28 -4 0 -7 -16 -6 -36 0 -19 -3 -38 -7 -40 -4 -3 -8 -21 -8
-40 0 -19 -4 -34 -10 -34 -5 0 -7 -17 -6 -37 2 -21 0 -42 -4 -48 -11 -13 0
-66 11 -59 5 3 9 19 9 35 0 17 4 28 9 25 5 -3 8 9 6 26 -1 18 1 39 5 48 5 8
13 35 20 60 7 25 16 53 21 62 5 10 6 24 3 31 -3 8 1 17 10 20 12 5 14 48 16
271 0 146 -2 266 -5 266 -3 0 -5 -6 -5 -12z"/>
<path d="M5545 930 c-3 -6 1 -7 9 -4 18 7 21 14 7 14 -6 0 -13 -4 -16 -10z"/>
<path d="M4371 231 c-20 -13 5 -24 37 -16 20 5 23 8 11 16 -18 11 -30 11 -48
0z"/>
<path d="M4473 140 c3 -33 2 -62 -2 -64 -4 -3 -5 -21 -3 -40 4 -30 8 -36 29
-36 22 0 24 3 22 48 -1 26 1 58 5 72 5 19 1 33 -14 53 -34 43 -43 34 -37 -33z"/>
<path d="M2563 184 c-7 -3 -9 -12 -6 -20 3 -8 -1 -14 -10 -14 -8 0 -17 -9 -20
-21 -3 -11 -15 -23 -26 -26 -12 -3 -17 -11 -14 -19 3 -8 -1 -14 -11 -14 -9 0
-16 -5 -16 -12 0 -6 -10 -22 -22 -35 -20 -22 -20 -23 -2 -23 22 1 54 23 54 38
0 5 7 12 15 16 8 3 15 11 15 18 0 7 14 24 30 38 17 14 30 30 30 36 0 7 7 15
16 18 8 3 12 10 9 16 -6 10 -22 12 -42 4z"/>
<path d="M2108 155 c-3 -3 -18 -8 -34 -11 -16 -3 -69 -14 -119 -25 -49 -12
-108 -23 -130 -25 -22 -3 -54 -9 -72 -15 -17 -5 -44 -12 -60 -15 -38 -6 -217
-55 -222 -60 -2 -2 53 -4 123 -4 116 0 128 2 133 19 3 12 24 24 66 36 80 23
266 74 291 80 18 4 47 25 35 25 -3 0 -8 -2 -11 -5z"/>
<path d="M5113 63 c-7 -3 -13 -11 -13 -19 0 -16 -16 -19 -25 -4 -8 13 -35 13
-35 0 0 -18 67 -41 111 -38 l44 3 -32 19 c-18 11 -34 25 -35 31 -2 7 -9 10
-15 8z"/>
</g>
</svg>
